<svg width="54" height="53" fill="none" xmlns="http://www.w3.org/2000/svg">
  <path d="M53.045 25.126c0 .593-.483 1.073-1.078 1.073-.594 0-1.077-.48-1.077-1.073s.483-1.073 1.078-1.073c.594 0 1.077.48 1.077 1.073zM29.1 49.057c0 .593-.483 1.073-1.078 1.073-.595 0-1.077-.48-1.077-1.073 0-.592.482-1.073 1.077-1.073s1.077.48 1.077 1.073zm0-47.853c0 .592-.483 1.073-1.078 1.073a1.075 1.075 0 110-2.147c.595 0 1.078.48 1.078 1.074z" fill="#FDD93B"/>
  <path d="M48.196 6.544c0 .593-.482 1.073-1.077 1.073s-1.077-.48-1.077-1.073.482-1.073 1.077-1.073 1.077.48 1.077 1.073zm0 35.753c0 .593-.482 1.073-1.077 1.073s-1.077-.48-1.077-1.073c0-.592.482-1.073 1.077-1.073s1.077.48 1.077 1.073zM10.03 6.544c0 .593-.482 1.073-1.077 1.073s-1.078-.48-1.078-1.073.483-1.073 1.078-1.073c.595 0 1.077.48 1.077 1.073zm0 35.753c0 .593-.482 1.073-1.077 1.073s-1.078-.48-1.078-1.073c0-.592.483-1.073 1.078-1.073.595 0 1.077.48 1.077 1.073z" fill="#FDD93B" fill-opacity=".3"/>
  <path d="M5.2 25.126c0 .593-.483 1.073-1.078 1.073-.595 0-1.077-.48-1.077-1.073s.482-1.073 1.077-1.073 1.077.48 1.077 1.073z" fill="#FDD93B"/>
  <path d="M28.022 44.337c10.65 0 19.285-8.601 19.285-19.211 0-10.61-8.634-19.211-19.285-19.211-10.65 0-19.285 8.6-19.285 19.21 0 10.611 8.634 19.212 19.285 19.212z" fill="#FEDC3B"/>
  <g opacity=".785" filter="url(#Sun__filter0_f)">
    <path d="M27.567 27.573c-5.748-2.333-3.69-8.343-6.282-9.82-3.872-2.206-4.177-3.034-7.345-.984-5.246 3.394-5.402 13.126-.609 20.476 2.41 3.697 7.79 6.318 12.993 6.233 5.126-.082 10.076-2.838 12.683-4.525 3.535-2.288 6.258-6.757 5.268-11.864-.468-2.42-10.96 2.818-16.708.485z" fill="#FFA700" fill-opacity=".78"/>
  </g>
  <defs>
    <filter id="Sun__filter0_f" x=".866" y="6.594" width="52.615" height="45.886" filterUnits="userSpaceOnUse" color-interpolation-filters="sRGB">
      <feFlood flood-opacity="0" result="BackgroundImageFix"/>
      <feBlend in="SourceGraphic" in2="BackgroundImageFix" result="shape"/>
      <feGaussianBlur stdDeviation="4.5" result="effect1_foregroundBlur"/>
    </filter>
  </defs>
</svg>
