<svg width="170" height="163" fill="none" xmlns="http://www.w3.org/2000/svg">
  <path d="M111.81 48.64c.465 2.72.677 5.481.677 8.327 0 27.698-21.964 50.128-49.05 50.128-4.739 0-9.267-.68-13.584-1.954 7.575 11.342 20.483 18.819 35.126 18.819 23.361 0 42.32-19.032 42.32-42.481 0-13.212-6.009-25.021-15.489-32.838z" fill="#EAC50F"/>
  <path d="M112.487 56.967c0-2.846-.254-5.607-.677-8.326a42.067 42.067 0 00-26.789-9.6c-23.36 0-42.32 19.03-42.32 42.48 0 8.751 2.624 16.908 7.152 23.662a47.945 47.945 0 0013.585 1.954c27.085 0 49.049-22.472 49.049-50.17z" fill="#F4E598"/>
  <path d="M74.484 53.229c3.343 2.974 2.073 9.898-2.836 15.463-4.91 5.565-11.596 7.647-14.939 4.673s-2.074-9.898 2.793-15.42c4.952-5.566 11.638-7.69 14.982-4.716z" fill="#FFFBEB"/>
  <path d="M70.717 137.172l-5.036 15.972a6.855 6.855 0 01-8.633 4.503 6.495 6.495 0 01-2.963-1.954c-.212 3.101 1.693 6.033 4.74 7.01a6.856 6.856 0 008.633-4.503l5.036-16.016c.762-2.421.085-4.97-1.48-6.712a7.53 7.53 0 01-.297 1.7zm-30.386-24.087c-.127 1.954-1.058 3.865-2.75 5.14l-13.459 9.941c-2.835 2.124-6.77 1.656-9.14-.935-.085 1.572.296 3.186 1.311 4.545 2.243 3.059 6.56 3.696 9.607 1.445l13.458-9.941c3.047-2.251 3.724-6.584 1.439-9.643-.127-.212-.297-.382-.466-.552zM30.47 81.394a6.762 6.762 0 00-1.82-4.588c-.21 3.568-3.131 6.457-6.77 6.5l-16.717.127a6.856 6.856 0 01-5.12-2.252c0 .17-.043.298-.043.468.042 3.823 3.132 6.882 6.94 6.84l16.717-.128c3.766-.043 6.814-3.144 6.814-6.967zm8.676-37.214c-2.2 3.102-6.517 3.824-9.607 1.615l-13.542-9.771c-.423-.297-.762-.637-1.1-.977a6.968 6.968 0 002.877 6.032l13.585 9.77c3.09 2.21 7.364 1.488 9.607-1.613 1.904-2.72 1.608-6.33-.55-8.666-.085 1.231-.466 2.506-1.27 3.61zM67.331 4.758c-.084-.297-.254-.595-.38-.85l3.893 11.725c1.185 3.61-.762 7.52-4.36 8.751-3.3 1.105-6.813-.467-8.294-3.526l1.397 4.206a6.865 6.865 0 008.675 4.375c3.598-1.232 5.544-5.097 4.36-8.708l-5.29-15.973zm41.474 15.166c-1.143 3.61-4.994 5.65-8.633 4.503a6.86 6.86 0 01-3.005-1.955 6.852 6.852 0 004.782 7.01 6.856 6.856 0 008.634-4.503l5.036-16.016c.761-2.421.084-4.927-1.482-6.712a7.575 7.575 0 01-.296 1.657l-5.036 16.015zm41.685 15.93l-13.457 9.983c-2.836 2.124-6.772 1.657-9.142-.934-.084 1.571.297 3.186 1.312 4.545 2.243 3.059 6.56 3.738 9.607 1.444l13.458-9.983c3.047-2.251 3.724-6.584 1.439-9.643-.169-.212-.339-.34-.466-.552-.127 1.996-1.058 3.866-2.751 5.14zm17.69 40.952c-.211 3.568-3.131 6.457-6.771 6.5l-16.716.127c-2.032 0-3.852-.85-5.079-2.252 0 .17-.042.298-.042.468.042 3.823 3.132 6.882 6.898 6.84l16.716-.128A6.878 6.878 0 00170 81.394c0-1.785-.719-3.356-1.82-4.588zm-16.124 49.703c-2.2 3.101-6.517 3.823-9.606 1.614l-13.585-9.771c-.381-.297-.762-.594-1.058-.934-.127 2.294.846 4.588 2.835 6.032l13.585 9.771a6.834 6.834 0 009.564-1.614c1.947-2.719 1.609-6.33-.507-8.667a6.38 6.38 0 01-1.228 3.569zm-41.6 11.47c-.085-.298-.254-.595-.381-.85l3.893 11.725c1.185 3.611-.762 7.519-4.359 8.751-3.301 1.104-6.813-.467-8.295-3.526l1.397 4.206a6.865 6.865 0 008.676 4.375c3.597-1.189 5.544-5.098 4.359-8.751l-5.29-15.93z" fill="#EAC50F"/>
  <path d="M57.047 157.647a6.855 6.855 0 008.634-4.503l5.036-15.973a7.51 7.51 0 00.296-1.656c-.804-.892-1.777-1.572-3.005-1.954-3.597-1.147-7.49.849-8.633 4.503l-5.036 16.015a7.567 7.567 0 00-.296 1.657c.804.807 1.82 1.529 3.005 1.911zm-32.925-29.481l13.458-9.984c1.693-1.274 2.624-3.143 2.751-5.14-2.328-2.591-6.263-3.016-9.141-.892l-13.458 9.941a6.891 6.891 0 00-2.75 5.097c2.37 2.592 6.305 3.059 9.14.978zM5.12 83.39l16.717-.127c3.64-.043 6.56-2.889 6.771-6.5-1.27-1.402-3.089-2.294-5.12-2.251l-16.717.127c-3.64 0-6.56 2.889-6.771 6.5 1.312 1.402 3.132 2.294 5.12 2.251zm10.877-47.366l13.585 9.728c3.09 2.21 7.406 1.487 9.606-1.614a7.153 7.153 0 001.27-3.611c-.38-.297-.72-.637-1.1-.935l-13.585-9.77c-3.09-2.167-7.406-1.487-9.607 1.614a7.154 7.154 0 00-1.27 3.61c.34.34.678.68 1.101.978zm50.488-11.682a6.949 6.949 0 004.359-8.751L66.95 3.866A6.856 6.856 0 0058.656.34c-3.64 1.274-5.587 5.183-4.36 8.793l3.894 11.725c1.481 3.016 4.994 4.588 8.295 3.484zM111.175.34a6.854 6.854 0 00-8.633 4.503l-5.036 15.973a7.575 7.575 0 00-.297 1.656c.804.892 1.778 1.572 3.005 1.955 3.597 1.147 7.491-.85 8.633-4.503l5.037-15.973a7.634 7.634 0 00.296-1.657A6.863 6.863 0 00111.175.34zM144.1 29.822l-13.458 9.983a6.893 6.893 0 00-2.751 5.098 6.82 6.82 0 009.142.934l13.457-9.983a6.893 6.893 0 002.751-5.098c-2.37-2.591-6.305-3.058-9.141-.934zm.593 53.568l16.716-.127c3.64-.043 6.56-2.889 6.771-6.5-1.269-1.402-3.089-2.294-5.078-2.251l-16.717.127c-3.639.043-6.559 2.889-6.771 6.5a6.554 6.554 0 005.079 2.251zm-15.828 34.962l13.585 9.771c3.089 2.209 7.363 1.487 9.606-1.614.804-1.105 1.185-2.337 1.27-3.611-.339-.34-.677-.68-1.058-.935l-13.585-9.77a6.834 6.834 0 00-9.564 1.614c-.804 1.104-1.185 2.336-1.27 3.611.296.34.635.637 1.016.934zm-19.256 39.21c3.597-1.189 5.544-5.097 4.359-8.751l-3.893-11.724a6.857 6.857 0 00-8.295-3.526c-3.597 1.189-5.544 5.097-4.359 8.708l3.893 11.725c1.482 3.101 4.994 4.673 8.295 3.568z" fill="#F4E598"/>
</svg>
