<svg width="209" height="210" fill="none" xmlns="http://www.w3.org/2000/svg">
  <path d="M170.579 24.364c1.147 6.671 1.668 13.448 1.668 20.432 0 67.97-54.135 123.013-120.891 123.013-11.682 0-22.843-1.668-33.483-4.795 18.671 27.834 50.485 46.182 86.575 46.182 57.577 0 104.307-46.704 104.307-104.249 0-32.42-14.812-61.402-38.176-80.583z" fill="#5C5840"/>
  <path d="M172.247 44.796c0-6.984-.626-13.76-1.669-20.433C152.637 9.665 129.585.803 104.552.803 46.974.803.245 47.507.245 105.052c0 21.475 6.467 41.49 17.628 58.066a118.714 118.714 0 0033.482 4.795c66.757 0 120.892-55.147 120.892-123.117z" fill="#5C5840"/>
</svg>
