<svg width="80" height="67" fill="none" xmlns="http://www.w3.org/2000/svg">
  <circle cx="65.664" cy="26.281" r=".714" fill="#9B70FF"/>
  <circle cx="42.416" cy="12.419" r=".714" fill="#9B70FF"/>
  <circle cx="42.416" cy="40.866" r=".714" fill="#9B70FF"/>
  <circle cx="68.421" cy="17.624" r=".714" fill="#9B70FF" fill-opacity=".3"/>
  <circle cx="37.121" cy="33.77" r=".714" fill="#9B70FF" fill-opacity=".3"/>
  <path d="M64.999 30.13a12.426 12.426 0 01-6.58 7.915c-6.198 3.004-13.661.42-16.666-5.777a12.47 12.47 0 0116.074-16.932 9.001 9.001 0 007.172 14.793z" fill="url(#Nube_Moon__paint0_linear)"/>
  <g opacity=".945" filter="url(#Nube_Moon__filter0_f)">
    <path d="M55.035 27.493c1.962 2.783 4.435 3.357 5.548 4.56 1.662 1.795 4.664-1.379 3.955.569-1.173 3.224-7.075 3.516-11.61 1.865-4.536-1.65-6.406-11.012-5.232-14.236.79-2.173 5.64-4.84 8.503-4.945.726-.026-1.866 1.753-2.396 4.564-.454 2.41.32 6.329 1.232 7.623z" fill="#7C37FD"/>
  </g>
  <path opacity=".522" d="M34.43 34.776a11.563 11.563 0 00-9.512-5.78A11.572 11.572 0 0012.843 40.04" stroke="#fff" stroke-linecap="round" stroke-linejoin="round"/>
  <path d="M61.557 42.422a13.588 13.588 0 00-13.552-13.586 13.587 13.587 0 10-27.175 0h-.035a13.587 13.587 0 10.354 27.17v.004h27.175v-.004a13.588 13.588 0 0013.233-13.584z" fill="#F7F9FF"/>
  <g filter="url(#Nube_Moon__filter1_f)">
    <path d="M29.454 37.767c3.84 3.973 3.826 10.215-.03 13.943-3.857 3.728-10.097 3.53-13.937-.442-3.84-3.973-3.826-10.215.031-13.943 3.857-3.728 10.096-3.53 13.936.442z" fill="url(#Nube_Moon__paint1_linear)"/>
  </g>
  <g filter="url(#Nube_Moon__filter2_f)">
    <path d="M48.632 53.92c-3.479.107-9.33-.273-10.888-.273-8.394 0-11.38-4.732-14.512-10.28-3.131-5.547 6.634-18.342 10.8-20.099 1.34-.564 5.445 1.366 6.545 4.13.827 2.077 1 8.105 4.015 9.452 3.363 1.502 6.002 1.975 7.827 2.683 4.655.627 8.183 3.614 8.183 7.203 0 4.046-4.48 7.325-10.004 7.325-.658 0-1.315-.047-1.966-.142z" fill="url(#Nube_Moon__paint2_linear)"/>
  </g>
  <g opacity=".349" filter="url(#Nube_Moon__filter3_f)">
    <path d="M32.85 37.653c1.98 5.158 1.811 10.021-.378 10.861-2.19.84-5.57-2.66-7.55-7.817-1.98-5.158-1.81-10.021.38-10.861 2.189-.84 5.569 2.66 7.549 7.817z" fill="#fff"/>
  </g>
  <defs>
    <filter id="Nube_Moon__filter0_f" x="32.354" y=".306" width="47.291" height="50.167" filterUnits="userSpaceOnUse" color-interpolation-filters="sRGB">
      <feFlood flood-opacity="0" result="BackgroundImageFix"/>
      <feBlend in="SourceGraphic" in2="BackgroundImageFix" result="shape"/>
      <feGaussianBlur stdDeviation="7.5" result="effect1_foregroundBlur"/>
    </filter>
    <filter id="Nube_Moon__filter1_f" x=".535" y="22.575" width="43.872" height="43.886" filterUnits="userSpaceOnUse" color-interpolation-filters="sRGB">
      <feFlood flood-opacity="0" result="BackgroundImageFix"/>
      <feBlend in="SourceGraphic" in2="BackgroundImageFix" result="shape"/>
      <feGaussianBlur stdDeviation="4" result="effect1_foregroundBlur"/>
    </filter>
    <filter id="Nube_Moon__filter2_f" x="14.624" y="15.17" width="53.978" height="46.891" filterUnits="userSpaceOnUse" color-interpolation-filters="sRGB">
      <feFlood flood-opacity="0" result="BackgroundImageFix"/>
      <feBlend in="SourceGraphic" in2="BackgroundImageFix" result="shape"/>
      <feGaussianBlur stdDeviation="4" result="effect1_foregroundBlur"/>
    </filter>
    <filter id="Nube_Moon__filter3_f" x="13.338" y="20.314" width="31.098" height="37.722" filterUnits="userSpaceOnUse" color-interpolation-filters="sRGB">
      <feFlood flood-opacity="0" result="BackgroundImageFix"/>
      <feBlend in="SourceGraphic" in2="BackgroundImageFix" result="shape"/>
      <feGaussianBlur stdDeviation="4" result="effect1_foregroundBlur"/>
    </filter>
    <linearGradient id="Nube_Moon__paint0_linear" x1="47.884" y1="15.386" x2="56.005" y2="38.972" gradientUnits="userSpaceOnUse">
      <stop stop-color="#B9A0FF"/>
      <stop offset="1" stop-color="#855AFF"/>
    </linearGradient>
    <linearGradient id="Nube_Moon__paint1_linear" x1="34.749" y1="32.288" x2="11.929" y2="54.686" gradientUnits="userSpaceOnUse">
      <stop stop-color="#E0E8FF" stop-opacity="0"/>
      <stop offset=".845" stop-color="#C7D4FF" stop-opacity=".847"/>
      <stop offset="1" stop-color="#C9D6FD"/>
    </linearGradient>
    <linearGradient id="Nube_Moon__paint2_linear" x1="41.119" y1="11.061" x2="41.446" y2="61.908" gradientUnits="userSpaceOnUse">
      <stop stop-color="#E0E8FF" stop-opacity="0"/>
      <stop offset=".845" stop-color="#C7D4FF" stop-opacity=".847"/>
      <stop offset="1" stop-color="#C9D6FD"/>
    </linearGradient>
  </defs>
</svg>
