<svg width="43" height="30" fill="none" xmlns="http://www.w3.org/2000/svg">
  <g clip-path="url(#Frame__clip0)">
    <path d="M31.93 5.09c.27.2.52.43.76.68 2.33 2.47 2.25 6.32-.17 8.6-.42.4-.89.72-1.38.97 1.63.37 3.42-.05 4.72-1.29a5.199 5.199 0 00.21-7.35 5.199 5.199 0 00-4.14-1.61z" fill="#EAC50F"/>
    <path d="M32.69 5.78c-.24-.25-.49-.48-.76-.68-1.16.08-2.29.55-3.21 1.4a5.199 5.199 0 002.42 8.85c.49-.25.96-.57 1.38-.97 2.42-2.28 2.5-6.14.17-8.6z" fill="#F4E598"/>
    <path d="M28.98 8.65c.55-.02 1.02.7 1.05 1.61.03.91-.39 1.66-.94 1.68-.55.02-1.02-.7-1.05-1.61-.03-.91.39-1.66.94-1.68z" fill="#FFFBEB"/>
    <path d="M24.27 4.94c-.04-.02-.07-.03-.11-.05l1.33.71c.41.22.57.73.35 1.15-.2.38-.65.53-1.04.39l.48.26a.84.84 0 10.8-1.48l-1.81-.98zm4.98-2.15c.2.42.03.92-.39 1.13-.14.07-.29.09-.43.08.24.29.66.4 1.02.22.42-.2.6-.71.39-1.13l-.89-1.85a.834.834 0 00-.7-.47c.04.05.08.11.11.17l.89 1.85zm5.06-2.1l-.37 2.02c-.08.43-.47.72-.89.69.12.15.29.26.5.29.46.08.9-.22.98-.68L34.9.99c.08-.46-.22-.9-.68-.98-.03 0-.06 0-.09-.01.15.19.23.44.18.69zm5.03 2.15c.28.34.26.84-.06 1.15l-1.49 1.42c-.18.17-.41.25-.65.23.01.02.02.03.04.04.32.34.86.35 1.19.03l1.48-1.42c.34-.32.35-.86.03-1.2a.851.851 0 00-.54-.25zm2.73 5.79c.06.46-.26.89-.72.95l-2.04.28c-.06.01-.12.01-.17 0 .18.21.46.34.76.3l2.04-.28c.46-.06.79-.49.72-.95a.86.86 0 00-.78-.73c.1.12.17.27.19.43zm-2.75 4.53a.487.487 0 00-.11-.04l1.33.72c.41.22.56.73.35 1.14-.2.38-.65.53-1.04.39l.48.26c.41.22.92.07 1.14-.34.22-.41.07-.92-.35-1.14l-1.8-.99z" fill="#EAC50F"/>
    <path d="M25.84 6.76a.85.85 0 00-.35-1.15l-1.33-.71a.84.84 0 00-1.04.39c-.22.41-.07.92.35 1.14l1.33.72c.39.14.83-.02 1.04-.39zM27.81.84c-.42.21-.6.71-.39 1.13l.89 1.85c.03.07.07.12.11.17a.839.839 0 00.82-1.21L28.35.93a.99.99 0 00-.11-.17c-.14 0-.29.02-.43.08zm5.42-.15l-.36 2.02c-.05.25.03.5.18.69.43.03.82-.26.89-.69l.37-2.02c.05-.26-.03-.5-.19-.69a.846.846 0 00-.89.69zm4.56 4.72l1.49-1.42c.32-.31.34-.81.06-1.15a.846.846 0 00-.65.23L37.21 4.5c-.32.31-.34.81-.06 1.15.23.01.46-.06.64-.24zm1.53 4.45l2.04-.28c.46-.06.79-.49.72-.95a.841.841 0 00-.19-.43c-.06 0-.12 0-.17.01l-2.04.28a.843.843 0 00-.53 1.38c.05 0 .11 0 .17-.01zm1.57 5.12c.22-.41.07-.92-.35-1.14l-1.33-.72a.858.858 0 00-1.04.39c-.22.41-.07.93.35 1.15l1.33.71c.39.14.84-.02 1.04-.39z" fill="#F4E598"/>
    <path d="M10.43 15.39c.47 0 .93.05 1.38.13 1.69-4.14 5.75-7.05 10.49-7.05h1.86A10.924 10.924 0 008.93 14a7.23 7.23 0 00-1.33-.12c-4.2 0-7.6 3.4-7.6 7.59 0 3.08 1.84 5.73 4.48 6.92a7.84 7.84 0 01-1.92-5.14c0-4.34 3.53-7.86 7.87-7.86z" fill="#fff"/>
    <path d="M38.91 16.33c-.98-.54-2.1-.86-3.29-.86-.71 0-1.39.11-2.04.31a3.226 3.226 0 00-2.94-1.91c-.5 0-.98.12-1.4.32-.95-2.47-2.78-4.5-5.09-5.73h-1.86c-4.74 0-8.8 2.91-10.49 7.05-.45-.08-.9-.13-1.38-.13-4.34 0-7.86 3.52-7.86 7.86 0 1.96.73 3.76 1.92 5.14.95.43 2 .67 3.11.67h28.03a6.79 6.79 0 006.79-6.79c0-2.55-1.42-4.77-3.5-5.93z" fill="#C0E3FF"/>
    <path d="M11.18 16.31c-.2-.02-.41-.03-.61-.03-3.24 0-5.86 2.48-5.86 5.54 0 .97.27 1.88.73 2.68.03-3.67 2.38-6.82 5.74-8.19z" fill="#fff"/>
  </g>
  <defs>
    <clipPath id="Frame__clip0">
      <path fill="#fff" d="M0 0h42.67v29.06H0z"/>
    </clipPath>
  </defs>
</svg>
