<svg width="204" height="121" fill="none" xmlns="http://www.w3.org/2000/svg">
  <path d="M176.127 7.357c.347 2.017.504 4.066.504 6.178 0 20.55-16.367 37.191-36.55 37.191-3.532 0-6.906-.504-10.123-1.45 5.645 8.416 15.263 13.963 26.175 13.963 17.408 0 31.536-14.12 31.536-31.518 0-9.802-4.478-18.565-11.542-24.364z" fill="#5C5840"/>
  <path d="M176.631 13.535c0-2.112-.189-4.16-.504-6.178A31.434 31.434 0 00156.164.234c-17.408 0-31.536 14.12-31.536 31.518 0 6.493 1.955 12.545 5.33 17.556a35.879 35.879 0 0010.123 1.45c20.183 0 36.55-16.673 36.55-37.223z" fill="#5C5840"/>
  <path d="M50.109 55.143c2.258 0 4.468.241 6.63.627 8.12-19.945 27.625-33.965 50.397-33.965h8.936a52.079 52.079 0 00-24.55-6.118c-22.004 0-40.789 13.538-48.62 32.76a34.645 34.645 0 00-6.39-.578C16.336 47.869 0 64.249 0 84.435c0 14.838 8.84 27.605 21.523 33.337-5.717-6.648-9.224-15.271-9.224-24.762 0-20.909 16.96-37.867 37.81-37.867z" fill="#fff"/>
  <path d="M186.936 59.672c-4.708-2.601-10.089-4.143-15.806-4.143-3.411 0-6.678.53-9.801 1.493-2.402-5.395-7.831-9.201-14.125-9.201a15.68 15.68 0 00-6.726 1.541c-4.564-11.9-13.356-21.679-24.454-27.605h-8.936c-22.772 0-42.278 14.02-50.397 33.965-2.162-.386-4.324-.627-6.63-.627-20.85 0-37.762 16.958-37.762 37.867 0 9.442 3.508 18.114 9.225 24.762a36.006 36.006 0 0014.941 3.228H171.13c18.016 0 32.621-14.645 32.621-32.712 0-12.284-6.822-22.98-16.815-28.568z" fill="#C0E3FF"/>
  <path d="M53.712 59.575c-.96-.096-1.97-.144-2.93-.144-15.566 0-28.154 11.948-28.154 26.69 0 4.673 1.297 9.057 3.507 12.91.144-17.68 11.435-32.855 27.577-39.456z" fill="#fff"/>
</svg>
