<svg width="45" height="24" fill="none" xmlns="http://www.w3.org/2000/svg">
  <g clip-path="url(#Frame__clip0)">
    <path d="M11.02 8.65c.5 0 .98.05 1.45.13 1.78-4.37 6.07-7.45 11.08-7.45h1.96A11.66 11.66 0 0020.11 0c-4.83 0-8.97 2.97-10.69 7.19a8.1 8.1 0 00-1.4-.13A8.02 8.02 0 000 15.08a8.01 8.01 0 004.74 7.31 8.27 8.27 0 01-2.03-5.42c0-4.6 3.72-8.32 8.31-8.32z" fill="#fff"/>
    <path d="M41.1 9.65a7.18 7.18 0 00-5.63-.57 3.4 3.4 0 00-4.59-1.68c-1-2.61-2.93-4.75-5.38-6.05-.65-.01-1.31 0-1.96 0-5.01 0-9.3 3.08-11.08 7.45a7.56 7.56 0 00-1.44-.15 8.31 8.31 0 00-8.31 8.31c0 2.08.77 3.97 2.03 5.42 1 .45 2.11.71 3.28.71h29.6A7.17 7.17 0 0041.1 9.65z" fill="#C0E3FF"/>
    <path d="M11.81 9.63c-.21-.02-.43-.03-.65-.03-3.42 0-6.19 2.62-6.19 5.85 0 1.03.28 1.99.78 2.83.02-3.88 2.51-7.21 6.06-8.65z" fill="#fff"/>
  </g>
  <defs>
    <clipPath id="Frame__clip0">
      <path fill="#fff" d="M0 0h44.79v23.09H0z"/>
    </clipPath>
  </defs>
</svg>
