<svg width="44" height="27" fill="none" xmlns="http://www.w3.org/2000/svg">
  <g clip-path="url(#Frame__clip0)">
    <path d="M13.99 13.13c.21 0 .43.01.65.03a9.967 9.967 0 019.02-5.68c1.62 0 3.24.4 4.68 1.17 1.37.73 2.54 1.76 3.43 2.99.01-.11.02-.23.02-.35 0-1.91-1.06-3.58-2.62-4.45-.73-.41-1.57-.64-2.47-.64a5.2 5.2 0 00-1.53.23A2.418 2.418 0 0022.97 5c-.38 0-.73.09-1.05.24A8.186 8.186 0 0018.1.95h-1.39c-3.55 0-6.6 2.18-7.86 5.28-.33-.06-.68-.1-1.03-.1-3.25 0-5.89 2.64-5.89 5.89 0 1.47.54 2.82 1.44 3.85.71.32 1.5.5 2.33.5h2.29a7.178 7.178 0 016-3.24z" fill="#C0E3FF"/>
    <path d="M7.82 6.14c.35 0 .7.04 1.03.1A8.493 8.493 0 0116.71.96h1.39A8.085 8.085 0 0014.27 0a8.2 8.2 0 00-7.59 5.1c-.32-.06-.65-.09-.99-.09C2.55 5.01 0 7.55 0 10.7c0 2.31 1.38 4.3 3.36 5.19a5.885 5.885 0 01-1.44-3.85c.01-3.26 2.64-5.9 5.9-5.9z" fill="#fff"/>
    <path d="M8.38 6.83c-.15-.02-.3-.02-.46-.02-2.43 0-4.39 1.86-4.39 4.15 0 .73.2 1.41.55 2.01.02-2.76 1.78-5.11 4.3-6.14zm8.01 8.34c.4 0 .78.04 1.16.11a9.558 9.558 0 018.86-5.95h1.57a9.248 9.248 0 00-4.32-1.08c-3.86 0-7.17 2.38-8.55 5.75-.37-.06-.74-.1-1.12-.1a6.41 6.41 0 00-6.41 6.41c0 2.61 1.56 4.84 3.79 5.85a6.589 6.589 0 01-1.62-4.34c-.01-3.67 2.97-6.65 6.64-6.65z" fill="#fff"/>
    <path d="M40.44 15.97c-.83-.46-1.77-.72-2.78-.72-.6 0-1.18.09-1.72.26a2.726 2.726 0 00-2.48-1.61c-.42 0-.82.1-1.18.27-.8-2.09-2.34-3.8-4.3-4.84-.52-.01-1.04 0-1.57 0-4 0-7.43 2.46-8.86 5.95a6.42 6.42 0 00-1.16-.11c-3.67 0-6.64 2.97-6.64 6.64 0 1.66.61 3.18 1.62 4.34.8.36 1.69.56 2.62.56h23.67a5.74 5.74 0 005.74-5.74 5.735 5.735 0 00-2.96-5z" fill="#C0E3FF"/>
    <path d="M17.02 15.95a8.7 8.7 0 00-.52-.02c-2.74 0-4.95 2.09-4.95 4.68 0 .82.23 1.59.62 2.26.02-3.11 2.01-5.76 4.85-6.92z" fill="#fff"/>
  </g>
  <defs>
    <clipPath id="Frame__clip0">
      <path fill="#fff" d="M0 0h43.39v26.72H0z"/>
    </clipPath>
  </defs>
</svg>
