<svg width="46" height="36" fill="none" xmlns="http://www.w3.org/2000/svg">
  <g clip-path="url(#Frame__clip0)">
    <path d="M16.37 13.13c.21 0 .43.01.65.03a9.967 9.967 0 019.02-5.68c1.62 0 3.24.4 4.68 1.17 1.37.73 2.54 1.76 3.43 2.99.01-.11.02-.23.02-.35 0-1.91-1.06-3.58-2.62-4.45-.73-.41-1.57-.64-2.47-.64-.53 0-1.04.08-1.52.24a2.418 2.418 0 00-2.2-1.43c-.38 0-.73.09-1.05.24A8.21 8.21 0 0020.5.96h-1.39c-3.55 0-6.59 2.18-7.86 5.28-.34-.06-.68-.1-1.03-.1-3.25 0-5.89 2.64-5.89 5.89 0 1.47.54 2.81 1.44 3.85.71.32 1.5.5 2.33.5h2.29a7.115 7.115 0 015.98-3.25zM7.02 27.31c-.13.22-.19.42-.22.6-.07.54.25.91.64 1.07.53.21 1.23.02 1.48-.9.06-.23.09-.6.1-.98.02-.82-.04-1.73-.04-1.73s-1.58 1.27-1.96 1.94zm4.1 5.04c-.13.22-.2.42-.22.6-.07.54.25.91.65 1.07.53.21 1.23.01 1.48-.9.06-.23.09-.6.1-.98.02-.82-.04-1.73-.04-1.73s-1.59 1.27-1.97 1.94zm6.67-2.4c-.12.22-.19.42-.22.6-.07.54.25.91.65 1.07.53.21 1.23.02 1.48-.9.07-.24.09-.6.11-.98.02-.82-.04-1.73-.04-1.73s-1.59 1.27-1.98 1.94zm4.71 3.64c-.12.22-.19.42-.22.6-.07.55.25.91.64 1.07.53.21 1.23.02 1.48-.9.06-.24.09-.6.1-.98.02-.82-.04-1.73-.04-1.73s-1.58 1.27-1.96 1.94zm8.19-5.32s-1.59 1.27-1.97 1.94c-.13.22-.19.42-.22.6-.07.54.25.91.64 1.07.53.22 1.23.02 1.48-.9.06-.24.09-.6.1-.98a16.1 16.1 0 00-.03-1.73zM8 18.82s-1.59 1.27-1.97 1.94c-.13.22-.2.42-.22.6-.07.55.25.91.65 1.07.53.21 1.23.02 1.48-.9.06-.24.09-.6.11-.98.02-.82-.05-1.73-.05-1.73z" fill="#21327A"/>
    <path d="M6.96 21.02c-.14.2-.36.29-.5.2-.14-.09-.14-.33 0-.54.14-.2.36-.29.5-.2.14.1.14.34 0 .54z" fill="#fff"/>
    <path d="M2.2 20.26S.61 21.53.23 22.2c-.12.22-.19.42-.22.6-.07.54.25.91.64 1.07.53.21 1.23.02 1.48-.9.06-.24.09-.6.1-.98.03-.81-.03-1.73-.03-1.73z" fill="#21327A"/>
    <path d="M1.15 22.47c-.14.2-.36.29-.5.2-.14-.09-.14-.33 0-.54.14-.2.36-.29.5-.2.14.09.14.33 0 .54zm6.8 5.11c-.14.2-.36.29-.5.2-.14-.09-.14-.33 0-.54.14-.2.36-.29.5-.2.13.1.13.34 0 .54zm4.09 5.04c-.13.21-.36.29-.5.2-.13-.09-.14-.33 0-.54.14-.2.36-.29.5-.2.14.09.14.33 0 .54zm6.68-2.4c-.14.2-.36.29-.5.2-.14-.09-.14-.33 0-.54.14-.2.36-.3.5-.2.14.1.14.34 0 .54zm4.7 3.64c-.14.2-.36.29-.5.2-.14-.09-.14-.33 0-.54.14-.2.36-.29.5-.2.14.1.14.34 0 .54zm6.23-3.39c-.14.2-.36.29-.5.2-.14-.09-.14-.33 0-.54.14-.2.36-.29.5-.2.14.1.14.34 0 .54zM10.2 6.14c.35 0 .69.04 1.03.1A8.493 8.493 0 0119.09.96h1.39A8.075 8.075 0 0016.66 0a8.2 8.2 0 00-7.59 5.1 5.693 5.693 0 00-6.69 5.6c0 2.31 1.38 4.3 3.36 5.19a5.905 5.905 0 01-1.44-3.85c.01-3.26 2.65-5.9 5.9-5.9z" fill="#fff"/>
    <path d="M10.77 6.83c-.15-.01-.31-.02-.46-.02-2.43 0-4.4 1.86-4.4 4.15 0 .73.2 1.41.55 2.01.02-2.76 1.79-5.11 4.31-6.14zm8 8.34c.4 0 .78.04 1.16.11a9.558 9.558 0 018.86-5.95h1.57a9.248 9.248 0 00-4.32-1.08c-3.86 0-7.17 2.38-8.55 5.75a6.41 6.41 0 00-7.53 6.31c0 2.6 1.56 4.84 3.79 5.84a6.608 6.608 0 01-1.62-4.34c0-3.66 2.97-6.64 6.64-6.64z" fill="#fff"/>
    <path d="M42.83 15.97c-.83-.46-1.77-.72-2.78-.72-.6 0-1.17.09-1.72.26a2.715 2.715 0 00-3.66-1.34 9.26 9.26 0 00-4.3-4.84H28.8c-4 0-7.43 2.46-8.86 5.95a6.42 6.42 0 00-1.16-.11 6.636 6.636 0 00-5.02 10.98c.8.36 1.69.56 2.62.56h23.66a5.74 5.74 0 005.74-5.74 5.73 5.73 0 00-2.95-5z" fill="#21327A"/>
    <path d="M19.41 15.95c-.17-.02-.34-.03-.52-.03-2.74 0-4.95 2.09-4.95 4.68 0 .82.23 1.59.62 2.26.02-3.09 2.01-5.75 4.85-6.91z" fill="#fff"/>
  </g>
  <defs>
    <clipPath id="Frame__clip0">
      <path fill="#fff" d="M0 0h45.78v35.35H0z"/>
    </clipPath>
  </defs>
</svg>
