<svg width="276" height="261" fill="none" xmlns="http://www.w3.org/2000/svg">
  <path d="M209.254 75.475c.534 3.108.777 6.265.777 9.52 0 31.667-25.175 57.312-56.22 57.312a54.851 54.851 0 01-15.57-2.234c8.682 12.968 23.477 21.516 40.26 21.516 26.776 0 48.507-21.759 48.507-48.57.048-15.105-6.888-28.607-17.754-37.544z" fill="#EAC50F"/>
  <path d="M210.08 84.995c0-3.255-.292-6.412-.777-9.52a48.29 48.29 0 00-30.704-10.977c-26.776 0-48.507 21.76-48.507 48.57 0 10.005 3.007 19.331 8.198 27.053a55.1 55.1 0 0015.57 2.234c31.045 0 56.22-25.693 56.22-57.36z" fill="#F4E598"/>
  <path d="M166.472 80.72c3.832 3.4 2.377 11.317-3.25 17.68-5.627 6.363-13.291 8.743-17.123 5.343-3.832-3.4-2.377-11.317 3.201-17.631 5.676-6.363 13.34-8.791 17.172-5.391z" fill="#FFFBEB"/>
  <path d="M162.203 176.695l-5.773 18.262a7.86 7.86 0 01-9.895 5.148 7.453 7.453 0 01-3.396-2.234c-.242 3.546 1.941 6.897 5.433 8.014a7.861 7.861 0 009.896-5.148l5.772-18.311c.873-2.768.097-5.683-1.698-7.674a8.555 8.555 0 01-.339 1.943zm-34.876-27.539c-.146 2.234-1.213 4.419-3.153 5.876l-15.425 11.414c-3.25 2.429-7.761 1.895-10.478-1.068-.097 1.797.34 3.643 1.504 5.197 2.571 3.497 7.519 4.225 11.011 1.651l15.425-11.365c3.493-2.574 4.269-7.528 1.649-11.026-.145-.291-.339-.485-.533-.679zm-11.302-36.234c0-2.04-.825-3.885-2.086-5.245-.243 4.08-3.59 7.382-7.761 7.431l-19.16.146c-2.329 0-4.414-.972-5.87-2.575 0 .195-.048.34-.048.535.048 4.371 3.59 7.868 7.955 7.819l19.16-.145c4.366-.049 7.858-3.594 7.81-7.966zm9.992-42.547c-2.523 3.546-7.47 4.372-11.011 1.846L99.435 61.1c-.437-.34-.873-.68-1.213-1.069-.145 2.623.97 5.246 3.25 6.897l15.571 11.171c3.541 2.526 8.44 1.7 11.011-1.846 2.183-3.108 1.843-7.237-.631-9.908-.048 1.312-.533 2.769-1.406 4.031zm32.257-45.072c-.097-.34-.291-.68-.437-.972l4.463 13.406c1.358 4.128-.873 8.596-4.996 10.005-3.784 1.263-7.81-.534-9.508-4.031l1.601 4.808c1.358 4.129 5.821 6.363 9.944 5.003 4.123-1.409 6.354-5.829 4.996-9.957l-6.063-18.262zm47.585 17.339c-1.309 4.128-5.723 6.46-9.895 5.148a7.872 7.872 0 01-3.444-2.234 7.835 7.835 0 005.481 8.014 7.862 7.862 0 009.896-5.148l5.772-18.311c.873-2.768.097-5.634-1.698-7.674a8.615 8.615 0 01-.339 1.894l-5.773 18.311zm47.73 18.214l-15.425 11.413c-3.25 2.429-7.761 1.895-10.477-1.068-.097 1.797.339 3.643 1.504 5.197 2.57 3.497 7.518 4.274 11.011 1.651l15.425-11.414c3.492-2.574 4.268-7.528 1.649-11.025-.194-.243-.388-.389-.534-.631-.145 2.282-1.212 4.42-3.153 5.877zm20.325 46.821c-.243 4.08-3.59 7.382-7.761 7.431l-19.16.146c-2.329 0-4.415-.972-5.821-2.575 0 .195-.049.34-.049.535.049 4.371 3.59 7.868 7.907 7.819l19.16-.145c4.366-.049 7.858-3.594 7.81-7.966a8.063 8.063 0 00-2.086-5.245zm-18.482 56.827c-2.522 3.545-7.47 4.371-11.011 1.845l-15.57-11.171c-.437-.34-.874-.68-1.213-1.068-.146 2.622.97 5.245 3.25 6.897l15.57 11.171a7.847 7.847 0 0010.963-1.846c2.231-3.109 1.843-7.237-.582-9.908a8.094 8.094 0 01-1.407 4.08zm-47.73 13.114c-.097-.34-.291-.68-.437-.972l4.463 13.406c1.358 4.128-.873 8.596-4.996 10.005-3.784 1.263-7.81-.534-9.507-4.031l1.6 4.808c1.359 4.128 5.821 6.363 9.944 5.003 4.123-1.36 6.355-5.829 4.996-10.006l-6.063-18.213z" fill="#EAC50F"/>
  <path d="M146.536 200.106a7.862 7.862 0 009.895-5.149l5.772-18.262a8.685 8.685 0 00.34-1.894c-.922-1.02-2.038-1.797-3.444-2.235-4.123-1.311-8.586.972-9.896 5.149l-5.772 18.311a8.602 8.602 0 00-.339 1.894c.921.923 2.085 1.748 3.444 2.186zm-37.738-33.708l15.425-11.414c1.94-1.457 3.007-3.594 3.153-5.877-2.668-2.963-7.179-3.448-10.478-1.02l-15.425 11.365a7.878 7.878 0 00-3.153 5.829 7.888 7.888 0 0010.478 1.117zm-21.78-51.193l19.16-.145c4.171-.049 7.518-3.303 7.761-7.432-1.455-1.602-3.541-2.622-5.869-2.574l-19.16.146c-4.172 0-7.519 3.303-7.762 7.431 1.456 1.603 3.541 2.623 5.87 2.574zM99.436 61.05l15.57 11.122c3.541 2.526 8.489 1.7 11.011-1.845a8.168 8.168 0 001.455-4.129 6.378 6.378 0 00-1.212-1.068l-15.571-11.171c-3.541-2.526-8.44-1.7-11.01 1.845a8.167 8.167 0 00-1.456 4.129c.34.388.776.777 1.213 1.117zm57.868-13.357a7.94 7.94 0 004.996-10.005l-4.462-13.406c-1.698-3.497-5.724-5.245-9.508-4.03-4.123 1.36-6.354 5.828-4.996 10.005l4.463 13.405c1.697 3.497 5.723 5.294 9.507 4.031zm51.223-27.442a7.862 7.862 0 00-9.896 5.148l-5.772 18.263a8.615 8.615 0 00-.339 1.894c.921 1.02 2.037 1.797 3.443 2.234 4.124 1.312 8.586-.971 9.896-5.148l5.772-18.263a8.678 8.678 0 00.34-1.894 7.871 7.871 0 00-3.444-2.234zm37.738 33.708L230.84 65.373a7.878 7.878 0 00-3.153 5.828 7.83 7.83 0 0010.477 1.069l15.426-11.414a7.874 7.874 0 003.152-5.829 7.829 7.829 0 00-10.477-1.068zm.679 61.246l19.16-.145c4.172-.049 7.519-3.303 7.761-7.432-1.455-1.602-3.541-2.622-5.821-2.574l-19.16.146c-4.171.049-7.518 3.303-7.761 7.431 1.455 1.603 3.541 2.623 5.821 2.574zm-18.093 39.973l15.571 11.171c3.541 2.526 8.44 1.7 11.011-1.845.921-1.263 1.358-2.672 1.455-4.129-.388-.388-.776-.777-1.213-1.068l-15.57-11.171a7.847 7.847 0 00-10.963 1.845c-.921 1.263-1.358 2.672-1.455 4.129.291.388.679.728 1.164 1.068zm-22.119 44.83c4.123-1.36 6.354-5.828 4.996-10.005l-4.462-13.406c-1.698-3.497-5.724-5.245-9.508-4.031-4.123 1.36-6.354 5.829-4.996 9.957l4.463 13.405c1.697 3.546 5.723 5.343 9.507 4.08z" fill="#F4E598"/>
  <path d="M90.652 137.791c1.163 0 2.38.056 3.6.167 9.192-19.241 28.463-31.496 49.949-31.496 8.972 0 17.943 2.218 25.917 6.488a55.94 55.94 0 0118.994 16.579c.056-.61.111-1.275.111-1.94 0-10.591-5.87-19.851-14.509-24.675-4.042-2.274-8.694-3.55-13.678-3.55-2.935 0-5.759.444-8.417 1.332-2.105-4.658-6.756-7.93-12.183-7.93-2.105 0-4.043.5-5.815 1.331-3.932-10.258-11.518-18.686-21.099-23.788h-7.697c-19.659 0-36.493 12.088-43.526 29.278-1.883-.333-3.766-.555-5.704-.555-17.998 0-32.617 14.639-32.617 32.66 0 8.151 2.99 15.581 7.974 21.348a31.323 31.323 0 0012.903 2.772h12.681c6.978-10.812 19.216-18.021 33.116-18.021zm-51.777 78.628a9.436 9.436 0 00-1.219 3.327c-.387 2.994 1.385 5.045 3.544 5.933 2.935 1.164 6.812.11 8.196-4.991.333-1.275.499-3.327.554-5.434.11-4.547-.222-9.593-.222-9.593s-8.749 7.042-10.853 10.758zm22.703 27.946c-.72 1.22-1.107 2.329-1.218 3.327-.388 2.994 1.385 5.046 3.6 5.933 2.935 1.165 6.811.056 8.196-4.99.332-1.276.498-3.327.553-5.434.111-4.547-.221-9.593-.221-9.593s-8.805 7.042-10.91 10.757zm36.938-13.308c-.665 1.22-1.052 2.329-1.218 3.327-.388 2.994 1.384 5.046 3.599 5.933 2.935 1.165 6.812.111 8.196-4.99.388-1.331.498-3.327.609-5.434.111-4.547-.221-9.593-.221-9.593s-8.805 7.042-10.965 10.757zm26.082 20.184c-.664 1.22-1.052 2.329-1.218 3.327-.387 3.05 1.385 5.046 3.544 5.933 2.935 1.164 6.812.111 8.196-4.991.332-1.33.499-3.327.554-5.434.111-4.546-.222-9.592-.222-9.592s-8.749 7.042-10.854 10.757zm45.354-29.499s-8.805 7.042-10.909 10.757a9.443 9.443 0 00-1.218 3.327c-.388 2.994 1.384 5.046 3.544 5.933 2.935 1.22 6.811.111 8.196-4.99.332-1.331.498-3.327.553-5.434.222-4.547-.166-9.593-.166-9.593zm-125.651-52.4s-8.805 7.042-10.909 10.757c-.72 1.22-1.107 2.329-1.218 3.327-.388 3.05 1.384 5.046 3.6 5.933 2.934 1.164 6.81.111 8.195-4.99.332-1.331.499-3.327.61-5.434.11-4.547-.278-9.593-.278-9.593z" fill="#21327A"/>
  <path d="M38.542 181.541c-.775 1.109-1.993 1.608-2.768 1.109-.776-.499-.776-1.83 0-2.994.775-1.109 1.993-1.608 2.768-1.109.776.554.776 1.885 0 2.994z" fill="#fff"/>
  <path d="M12.183 177.327s-8.805 7.042-10.91 10.757c-.664 1.22-1.052 2.329-1.218 3.327-.388 2.994 1.384 5.046 3.544 5.933 2.935 1.164 6.812.111 8.196-4.99.332-1.331.498-3.327.554-5.434.166-4.492-.166-9.593-.166-9.593z" fill="#21327A"/>
  <path d="M6.368 189.581c-.775 1.109-1.993 1.608-2.769 1.109-.775-.499-.775-1.83 0-2.994.776-1.109 1.994-1.608 2.77-1.109.774.499.774 1.829 0 2.994zm37.657 28.335c-.775 1.109-1.994 1.608-2.769 1.109-.775-.499-.775-1.83 0-2.994.775-1.165 1.994-1.608 2.769-1.109.72.554.72 1.885 0 2.994zm22.649 27.946c-.72 1.164-1.993 1.608-2.769 1.109-.72-.499-.775-1.83 0-2.994.776-1.109 1.994-1.608 2.77-1.109.775.499.775 1.83 0 2.994zm36.992-13.308c-.775 1.109-1.994 1.608-2.769 1.109-.775-.499-.775-1.83 0-2.994.775-1.109 1.994-1.608 2.769-1.109.775.554.775 1.885 0 2.994zm26.027 20.184c-.775 1.109-1.993 1.608-2.769 1.109-.775-.499-.775-1.83 0-2.995.776-1.108 1.994-1.608 2.769-1.108.775.554.775 1.885 0 2.994zm34.5-18.798c-.775 1.109-1.993 1.608-2.769 1.109-.775-.499-.775-1.829 0-2.994.776-1.109 1.994-1.608 2.769-1.109.775.555.775 1.885 0 2.994zM56.484 99.032c1.938 0 3.821.222 5.704.555 7.033-17.19 23.868-29.277 43.526-29.277h7.698a44.89 44.89 0 00-21.21-5.323c-18.994 0-35.275 11.7-42.03 28.279a30.254 30.254 0 00-5.539-.5c-17.388 0-31.51 14.14-31.51 31.551 0 12.809 7.643 23.843 18.608 28.778-4.929-5.766-7.975-13.197-7.975-21.348.111-18.076 14.73-32.715 32.728-32.715z" fill="#fff"/>
  <path d="M59.64 102.859a38.747 38.747 0 00-2.547-.111c-13.456 0-24.366 10.313-24.366 23.011 0 4.048 1.108 7.819 3.046 11.145.111-15.304 9.913-28.334 23.868-34.045zm44.303 46.244c2.215 0 4.319.222 6.424.61 7.863-19.352 26.858-32.992 49.064-32.992h8.694c-7.144-3.771-15.284-5.989-23.923-5.989-21.376 0-39.705 13.197-47.347 31.884-1.994-.389-4.098-.555-6.203-.555-19.603 0-35.496 15.914-35.496 35.543 0 14.417 8.638 26.838 20.988 32.382-5.594-6.487-8.972-14.86-8.972-24.065 0-20.294 16.447-36.818 36.771-36.818z" fill="#fff"/>
  <path d="M237.18 153.539a31.506 31.506 0 00-15.395-3.993c-3.322 0-6.479.5-9.525 1.442a15.034 15.034 0 00-13.733-8.927c-2.326 0-4.541.554-6.535 1.497-4.43-11.534-12.958-21.071-23.812-26.838h-8.694c-22.151 0-41.145 13.641-49.064 32.993a35.53 35.53 0 00-6.424-.61c-20.323 0-36.77 16.468-36.77 36.818 0 9.205 3.378 17.578 8.97 24.065a35.29 35.29 0 0014.51 3.105H221.73c17.555 0 31.786-14.25 31.786-31.828 0-11.921-6.589-22.29-16.336-27.724z" fill="#21327A"/>
  <path d="M107.487 153.428a24.355 24.355 0 00-2.88-.166c-15.173 0-27.411 11.589-27.411 25.95 0 4.547 1.273 8.817 3.433 12.532.11-17.134 11.13-31.884 26.858-38.316z" fill="#fff"/>
</svg>
