<svg width="132" height="124" fill="none" xmlns="http://www.w3.org/2000/svg">
  <g clip-path="url(#10n_1__clip0)">
    <path d="M99.858 34.971c.253 1.474.369 2.97.369 4.512 0 15.009-11.954 27.163-26.695 27.163a26.07 26.07 0 01-7.393-1.06c4.123 6.147 11.148 10.198 19.117 10.198 12.713 0 23.032-10.312 23.032-23.019 0-7.159-3.271-13.558-8.43-17.794z" fill="#5C5840"/>
    <path d="M100.226 39.483a29.14 29.14 0 00-.368-4.512 22.955 22.955 0 00-14.58-5.202c-12.713 0-23.031 10.313-23.031 23.02 0 4.741 1.428 9.16 3.892 12.82a26.2 26.2 0 007.393 1.06c14.74 0 26.694-12.177 26.694-27.186z" fill="#5C5840"/>
    <path d="M43.527 65.464c.552 0 1.13.027 1.709.08 4.362-9.142 13.51-14.964 23.707-14.964 4.259 0 8.517 1.053 12.301 3.082a26.56 26.56 0 019.016 7.877c.026-.29.052-.606.052-.922 0-5.032-2.786-9.431-6.886-11.723a13.163 13.163 0 00-6.492-1.686c-1.393 0-2.734.21-3.995.632-1-2.213-3.207-3.767-5.783-3.767-.999 0-1.919.237-2.76.632-1.866-4.873-5.467-8.877-10.014-11.301h-3.654c-9.33 0-17.32 5.742-20.659 13.91a15.358 15.358 0 00-2.707-.264c-8.542 0-15.481 6.955-15.481 15.516 0 3.873 1.419 7.403 3.785 10.143a14.855 14.855 0 006.124 1.317h6.019a18.692 18.692 0 0115.718-8.562zM18.95 102.82a4.484 4.484 0 00-.578 1.58c-.184 1.423.657 2.397 1.682 2.819 1.393.553 3.233.052 3.89-2.371.158-.606.237-1.581.263-2.582.052-2.16-.105-4.557-.105-4.557s-4.153 3.345-5.152 5.111zm10.776 13.277c-.341.579-.525 1.106-.578 1.58-.184 1.423.657 2.398 1.709 2.819 1.393.554 3.233.027 3.89-2.371.158-.606.236-1.58.262-2.581.053-2.16-.104-4.558-.104-4.558s-4.18 3.346-5.179 5.111zm17.532-6.323c-.315.58-.499 1.107-.578 1.581-.184 1.422.657 2.397 1.709 2.819 1.393.553 3.233.052 3.89-2.371.184-.632.236-1.581.289-2.582.052-2.16-.105-4.557-.105-4.557s-4.18 3.345-5.205 5.11zm12.38 9.59c-.315.579-.5 1.106-.578 1.58-.184 1.449.657 2.398 1.682 2.819 1.393.553 3.233.053 3.89-2.371.158-.632.237-1.581.263-2.582.053-2.16-.105-4.557-.105-4.557s-4.153 3.346-5.152 5.111zm21.527-14.015s-4.18 3.345-5.178 5.11a4.49 4.49 0 00-.578 1.581c-.184 1.422.657 2.397 1.682 2.819 1.393.579 3.233.052 3.89-2.371.157-.632.236-1.581.262-2.582.106-2.16-.078-4.557-.078-4.557zm-59.64-24.895s-4.178 3.345-5.177 5.11c-.342.58-.525 1.107-.578 1.581-.184 1.449.657 2.397 1.709 2.819 1.392.553 3.232.052 3.89-2.371.157-.632.236-1.58.289-2.582.052-2.16-.132-4.557-.132-4.557z" fill="#21327A"/>
    <path d="M18.794 86.25c-.368.526-.946.763-1.314.526-.369-.237-.369-.87 0-1.422.368-.527.946-.764 1.314-.527.368.263.368.896 0 1.422z" fill="#fff"/>
    <path d="M6.282 84.247s-4.179 3.346-5.178 5.11c-.315.58-.5 1.107-.578 1.582-.184 1.422.657 2.397 1.682 2.818 1.393.553 3.233.053 3.89-2.37.158-.633.237-1.581.263-2.582.08-2.134-.079-4.558-.079-4.558z" fill="#21327A"/>
    <path d="M3.523 90.07c-.368.526-.946.763-1.315.526-.368-.237-.368-.87 0-1.422.369-.527.947-.764 1.315-.527.367.237.367.869 0 1.422zm17.873 13.461c-.368.527-.947.764-1.314.527-.368-.237-.368-.87 0-1.423.367-.553.946-.764 1.314-.527.342.264.342.896 0 1.423zm10.75 13.277c-.342.553-.946.764-1.314.527-.342-.237-.368-.87 0-1.423.368-.526.946-.764 1.315-.526.367.237.367.869 0 1.422h-.001zm17.558-6.323c-.368.527-.947.764-1.314.527-.368-.237-.368-.869 0-1.422.367-.527.946-.764 1.314-.527.368.263.368.895 0 1.422zm12.353 9.59c-.368.527-.946.764-1.314.527-.368-.237-.368-.87 0-1.423.368-.527.946-.764 1.314-.527.368.263.368.896 0 1.423zm16.375-8.931c-.368.527-.946.764-1.314.527-.368-.237-.368-.869 0-1.423.368-.527.946-.764 1.314-.527.368.264.368.896 0 1.423zM27.31 47.05c.92 0 1.814.105 2.708.263 3.338-8.167 11.329-13.91 20.659-13.91h3.654a21.29 21.29 0 00-10.067-2.528c-9.016 0-16.743 5.559-19.95 13.435-.867-.16-1.747-.24-2.628-.237-8.253 0-14.956 6.718-14.956 14.99 0 6.085 3.627 11.327 8.832 13.672-2.34-2.74-3.786-6.27-3.786-10.143.053-8.587 6.992-15.542 15.534-15.542z" fill="#fff"/>
    <path d="M28.807 48.868a18.043 18.043 0 00-1.208-.053c-6.387 0-11.566 4.9-11.566 10.933 0 1.923.526 3.714 1.446 5.294.053-7.27 4.705-13.46 11.329-16.174zm21.028 21.97c1.052 0 2.05.106 3.05.29 3.731-9.194 12.747-15.674 23.287-15.674h4.126c-3.39-1.792-7.254-2.846-11.354-2.846-10.146 0-18.846 6.27-22.473 15.148a15.464 15.464 0 00-2.944-.263c-9.305 0-16.848 7.56-16.848 16.886 0 6.85 4.1 12.75 9.962 15.384-2.655-3.082-4.259-7.06-4.259-11.433 0-9.641 7.807-17.492 17.453-17.492z" fill="#fff"/>
    <path d="M113.075 72.946a14.947 14.947 0 00-7.307-1.897c-1.577 0-3.076.237-4.521.685a7.13 7.13 0 00-6.519-4.241 7.241 7.241 0 00-3.101.71c-2.103-5.479-6.15-10.01-11.302-12.75h-4.127c-10.514 0-19.529 6.481-23.288 15.675a16.842 16.842 0 00-3.049-.29c-9.646 0-17.452 7.824-17.452 17.492 0 4.374 1.603 8.352 4.257 11.433a16.747 16.747 0 006.887 1.476h62.188c8.333 0 15.087-6.77 15.087-15.122 0-5.663-3.127-10.59-7.753-13.171z" fill="#21327A"/>
    <path d="M51.517 72.893c-.453-.053-.91-.08-1.367-.079-7.201 0-13.01 5.506-13.01 12.329 0 2.16.604 4.189 1.63 5.954.052-8.14 5.282-15.148 12.747-18.204z" fill="#fff"/>
  </g>
  <defs>
    <clipPath id="10n_1__clip0">
      <path fill="#fff" transform="translate(.5)" d="M0 0h131v124H0z"/>
    </clipPath>
  </defs>
</svg>
