<svg width="67" height="58" fill="none" xmlns="http://www.w3.org/2000/svg">
  <path opacity=".522" d="M26.087 17.638a9.114 9.114 0 00-7.497-4.555 9.12 9.12 0 00-9.516 8.705" stroke="#fff" stroke-linecap="round" stroke-linejoin="round"/>
  <path d="M47.465 23.664a10.708 10.708 0 00-10.68-10.708 10.708 10.708 0 10-21.416 0h-.028a10.708 10.708 0 10.279 21.413v.004h21.416v-.004a10.709 10.709 0 0010.43-10.705z" fill="#F7F9FF"/>
  <g filter="url(#Rayo__filter0_f)">
    <path d="M22.165 19.995c3.027 3.131 3.016 8.05-.024 10.99-3.04 2.937-7.957 2.781-10.983-.35-3.026-3.13-3.015-8.05.024-10.988 3.04-2.938 7.957-2.782 10.983.349z" fill="url(#Rayo__paint0_linear)"/>
  </g>
  <g filter="url(#Rayo__filter1_f)">
    <path d="M37.279 32.725c-2.742.085-7.352-.215-8.581-.215-6.615 0-8.968-3.73-11.436-8.101-2.468-4.372 5.227-14.456 8.511-15.84 1.056-.445 4.291 1.076 5.158 3.254.652 1.637.788 6.388 3.164 7.45 2.65 1.183 4.73 1.556 6.169 2.114 3.669.494 6.448 2.848 6.448 5.677 0 3.188-3.53 5.772-7.884 5.772-.518 0-1.036-.037-1.549-.111z" fill="url(#Rayo__paint1_linear)"/>
  </g>
  <g opacity=".349" filter="url(#Rayo__filter2_f)">
    <path d="M24.842 19.906c1.56 4.065 1.427 7.897-.299 8.56-1.725.662-4.389-2.097-5.95-6.162-1.56-4.065-1.426-7.897.3-8.56 1.725-.662 4.388 2.097 5.949 6.162z" fill="#fff"/>
  </g>
  <path opacity=".522" d="M38.056 21.105a9.113 9.113 0 00-7.497-4.555 9.12 9.12 0 00-9.516 8.705" stroke="#fff" stroke-linecap="round" stroke-linejoin="round"/>
  <path d="M59.434 27.132a10.708 10.708 0 00-10.68-10.708 10.708 10.708 0 00-21.416 0h-.028a10.708 10.708 0 10.279 21.413v.003h21.416v-.003a10.708 10.708 0 0010.43-10.705z" fill="#F7F9FF"/>
  <g filter="url(#Rayo__filter3_f)">
    <path d="M34.134 23.463c3.026 3.13 3.016 8.05-.024 10.988-3.04 2.938-7.957 2.782-10.983-.348-3.026-3.131-3.015-8.05.024-10.989 3.04-2.938 7.957-2.782 10.983.349z" fill="url(#Rayo__paint2_linear)"/>
  </g>
  <g filter="url(#Rayo__filter4_f)">
    <path d="M49.248 36.192c-2.742.085-7.352-.214-8.581-.214-6.615 0-8.968-3.73-11.436-8.102s5.227-14.455 8.511-15.84c1.056-.445 4.291 1.076 5.158 3.254.652 1.638.788 6.388 3.164 7.45 2.65 1.184 4.73 1.557 6.169 2.115 3.669.494 6.448 2.847 6.448 5.677 0 3.187-3.53 5.772-7.884 5.772a10.71 10.71 0 01-1.549-.112z" fill="url(#Rayo__paint3_linear)"/>
  </g>
  <g opacity=".349" filter="url(#Rayo__filter5_f)">
    <path d="M36.81 23.373c1.561 4.065 1.428 7.897-.298 8.56-1.725.662-4.389-2.097-5.95-6.162-1.56-4.065-1.426-7.897.3-8.56 1.725-.661 4.388 2.097 5.949 6.162z" fill="#fff"/>
  </g>
  <path d="M36.617 29.853l3.495.407-4.499 11.197-4.039-.28 5.043-11.324z" fill="#FEDC3B"/>
  <path d="M37.121 37.402l4.703.968-9.643 10.128 4.94-11.096z" fill="#FEDC3B"/>
  <g opacity=".785" filter="url(#Rayo__filter6_f)">
    <path d="M33.75 37.421c-.064.088-3.367-.184-3.431-.087-1.616 2.44 3.668 3.704 2.605 4.814-1.642 1.715-2.215 1.382-1.55 3.209 1.101 3.024 1.164 1.938 5.603.322 2.233-.812 2.528-6.57 3.146-9.209.61-2.6 1.559-2.079 1.012-3.582-.068-.186-4.649 2.064-4.743 1.87-.87-1.8 4.596-7.282 2.063-7.337-1.32-.029-2.757 7.351-4.705 10z" fill="#FFA700" fill-opacity=".78"/>
  </g>
  <path d="M24.592 49.8a.606.606 0 11-1.213 0 .606.606 0 011.213 0zm20.218-1.614a.606.606 0 11-1.213 0 .606.606 0 011.212 0zm-25.519-8.619a.606.606 0 11-1.212 0 .606.606 0 011.212 0z" fill="#FDD93B"/>
  <path d="M25.198 42.117a.606.606 0 11-1.213 0 .606.606 0 011.213 0zm20.218.607a.606.606 0 11-1.213 0 .606.606 0 011.213 0z" fill="#FDD93B" fill-opacity=".3"/>
  <defs>
    <filter id="Rayo__filter0_f" x=".895" y="9.541" width="31.532" height="31.548" filterUnits="userSpaceOnUse" color-interpolation-filters="sRGB">
      <feFlood flood-opacity="0" result="BackgroundImageFix"/>
      <feBlend in="SourceGraphic" in2="BackgroundImageFix" result="shape"/>
      <feGaussianBlur stdDeviation="4" result="effect1_foregroundBlur"/>
    </filter>
    <filter id="Rayo__filter1_f" x="8.782" y=".491" width="45.93" height="40.345" filterUnits="userSpaceOnUse" color-interpolation-filters="sRGB">
      <feFlood flood-opacity="0" result="BackgroundImageFix"/>
      <feBlend in="SourceGraphic" in2="BackgroundImageFix" result="shape"/>
      <feGaussianBlur stdDeviation="4" result="effect1_foregroundBlur"/>
    </filter>
    <filter id="Rayo__filter2_f" x="9.506" y="5.646" width="24.424" height="30.917" filterUnits="userSpaceOnUse" color-interpolation-filters="sRGB">
      <feFlood flood-opacity="0" result="BackgroundImageFix"/>
      <feBlend in="SourceGraphic" in2="BackgroundImageFix" result="shape"/>
      <feGaussianBlur stdDeviation="4" result="effect1_foregroundBlur"/>
    </filter>
    <filter id="Rayo__filter3_f" x="12.864" y="13.009" width="31.532" height="31.548" filterUnits="userSpaceOnUse" color-interpolation-filters="sRGB">
      <feFlood flood-opacity="0" result="BackgroundImageFix"/>
      <feBlend in="SourceGraphic" in2="BackgroundImageFix" result="shape"/>
      <feGaussianBlur stdDeviation="4" result="effect1_foregroundBlur"/>
    </filter>
    <filter id="Rayo__filter4_f" x="20.751" y="3.959" width="45.93" height="40.345" filterUnits="userSpaceOnUse" color-interpolation-filters="sRGB">
      <feFlood flood-opacity="0" result="BackgroundImageFix"/>
      <feBlend in="SourceGraphic" in2="BackgroundImageFix" result="shape"/>
      <feGaussianBlur stdDeviation="4" result="effect1_foregroundBlur"/>
    </filter>
    <filter id="Rayo__filter5_f" x="21.475" y="9.114" width="24.424" height="30.917" filterUnits="userSpaceOnUse" color-interpolation-filters="sRGB">
      <feFlood flood-opacity="0" result="BackgroundImageFix"/>
      <feBlend in="SourceGraphic" in2="BackgroundImageFix" result="shape"/>
      <feGaussianBlur stdDeviation="4" result="effect1_foregroundBlur"/>
    </filter>
    <filter id="Rayo__filter6_f" x="20.009" y="17.421" width="31.289" height="39.849" filterUnits="userSpaceOnUse" color-interpolation-filters="sRGB">
      <feFlood flood-opacity="0" result="BackgroundImageFix"/>
      <feBlend in="SourceGraphic" in2="BackgroundImageFix" result="shape"/>
      <feGaussianBlur stdDeviation="5" result="effect1_foregroundBlur"/>
    </filter>
    <linearGradient id="Rayo__paint0_linear" x1="26.338" y1="15.677" x2="8.354" y2="33.33" gradientUnits="userSpaceOnUse">
      <stop stop-color="#E0E8FF" stop-opacity="0"/>
      <stop offset=".845" stop-color="#C7D4FF" stop-opacity=".847"/>
      <stop offset="1" stop-color="#C9D6FD"/>
    </linearGradient>
    <linearGradient id="Rayo__paint1_linear" x1="31.358" y1="-1.052" x2="31.616" y2="39.021" gradientUnits="userSpaceOnUse">
      <stop stop-color="#E0E8FF" stop-opacity="0"/>
      <stop offset=".845" stop-color="#C7D4FF" stop-opacity=".847"/>
      <stop offset="1" stop-color="#C9D6FD"/>
    </linearGradient>
    <linearGradient id="Rayo__paint2_linear" x1="38.307" y1="19.145" x2="20.323" y2="36.797" gradientUnits="userSpaceOnUse">
      <stop stop-color="#E0E8FF" stop-opacity="0"/>
      <stop offset=".845" stop-color="#C7D4FF" stop-opacity=".847"/>
      <stop offset="1" stop-color="#C9D6FD"/>
    </linearGradient>
    <linearGradient id="Rayo__paint3_linear" x1="43.327" y1="2.416" x2="43.585" y2="42.488" gradientUnits="userSpaceOnUse">
      <stop stop-color="#E0E8FF" stop-opacity="0"/>
      <stop offset=".845" stop-color="#C7D4FF" stop-opacity=".847"/>
      <stop offset="1" stop-color="#C9D6FD"/>
    </linearGradient>
  </defs>
</svg>
