<svg width="45" height="38" fill="none" xmlns="http://www.w3.org/2000/svg">
  <g clip-path="url(#Frame__clip0)">
    <path d="M14.76 13.13c.21 0 .43.01.65.03a9.967 9.967 0 019.02-5.68c1.62 0 3.24.4 4.68 1.17 1.37.73 2.54 1.76 3.43 2.99.01-.12.02-.23.02-.35 0-1.92-1.06-3.58-2.62-4.45-.73-.41-1.57-.64-2.47-.64a5.2 5.2 0 00-1.53.23A2.418 2.418 0 0023.74 5c-.38 0-.73.09-1.05.24A8.21 8.21 0 0018.88.95h-1.39c-3.55 0-6.59 2.18-7.86 5.28-.33-.06-.68-.1-1.03-.1-3.25 0-5.89 2.64-5.89 5.9 0 1.47.54 2.82 1.44 3.85.71.32 1.5.5 2.33.5h2.29a7.146 7.146 0 015.99-3.25z" fill="#21327A"/>
    <path d="M8.59 6.14c.35 0 .7.04 1.03.1A8.493 8.493 0 0117.48.96h1.39A8.045 8.045 0 0015.05 0a8.2 8.2 0 00-7.59 5.1c-.32-.06-.65-.09-.99-.09C3.33 5.01.78 7.56.78 10.7c0 2.31 1.38 4.3 3.36 5.19a5.885 5.885 0 01-1.44-3.85c0-3.26 2.64-5.9 5.89-5.9z" fill="#fff"/>
    <path d="M9.16 6.83c-.15-.01-.31-.02-.46-.02-2.43 0-4.39 1.86-4.39 4.15 0 .73.2 1.41.55 2.01.02-2.75 1.78-5.11 4.3-6.14zm8 8.34c.4 0 .78.04 1.16.11a9.558 9.558 0 018.86-5.95h1.57A9.239 9.239 0 0015.88 14c-.36-.06-.74-.1-1.12-.1a6.41 6.41 0 00-6.41 6.41c0 2.6 1.56 4.84 3.79 5.85a6.589 6.589 0 01-1.62-4.34c0-3.67 2.98-6.65 6.64-6.65z" fill="#fff"/>
    <path d="M41.22 15.97c-.82-.46-1.77-.72-2.78-.72-.6 0-1.17.09-1.72.26a2.726 2.726 0 00-2.48-1.61c-.42 0-.82.1-1.18.27-.8-2.09-2.34-3.8-4.3-4.84h-1.57c-4 0-7.43 2.46-8.86 5.95-.38-.07-.76-.11-1.16-.11a6.636 6.636 0 00-5.02 10.98c.8.36 1.69.57 2.62.57h23.67a5.74 5.74 0 005.74-5.74 5.763 5.763 0 00-2.96-5.01z" fill="#21327A"/>
    <path d="M17.8 15.95c-.17-.02-.34-.02-.52-.02-2.74 0-4.95 2.09-4.95 4.67 0 .82.23 1.59.62 2.26.02-3.1 2.01-5.75 4.85-6.91z" fill="#fff"/>
    <path d="M25.74 27.83c-.95 1.56-2.53 2.85-4.5 3.7l-2.2 6.45 7.22-8.19 1.73-1.96h-2.25z" fill="#EAC50F"/>
    <path d="M25.74 27.83h-5.21l2.13-6.23-7.22 8.19h6.4l-.59 1.74c1.96-.85 3.55-2.14 4.49-3.7z" fill="#F4E598"/>
    <path d="M6.19 17.7c-.57.94-1.52 1.72-2.7 2.22l-1.32 3.87 4.34-4.92 1.04-1.17H6.19z" fill="#EAC50F"/>
    <path d="M6.19 17.7H3.06l1.28-3.74L0 18.87h3.84l-.35 1.04c1.18-.5 2.13-1.28 2.7-2.21z" fill="#F4E598"/>
  </g>
  <defs>
    <clipPath id="Frame__clip0">
      <path fill="#fff" d="M0 0h44.17v37.97H0z"/>
    </clipPath>
  </defs>
</svg>
