<svg width="66" height="75" fill="none" xmlns="http://www.w3.org/2000/svg">
  <path d="M43.146 52.803a3.484 3.484 0 001.024-2.483 3.593 3.593 0 00-.479-1.765L26.42 18.997a3.51 3.51 0 00-6.129 3.419l.031.054.025.043L37.63 52.095a3.51 3.51 0 005.516.708z" fill="url(#Snow__paint0_linear)"/>
  <path d="M22.607 53.805a3.483 3.483 0 002.662-.354 3.593 3.593 0 001.29-1.297L43.52 22.416a3.51 3.51 0 00-6.025-3.598l-.031.054-.025.043-16.977 29.76a3.51 3.51 0 002.145 5.13z" fill="url(#Snow__paint1_linear)"/>
  <path d="M52.547 34.515a3.486 3.486 0 00-1.638-2.129 3.592 3.592 0 00-1.768-.468l-34.234.18a3.51 3.51 0 00-.104 7.017h.113l34.26-.177a3.51 3.51 0 003.371-4.422z" fill="url(#Snow__paint2_linear)"/>
  <g filter="url(#Snow__filter0_f)">
    <path d="M23.202 49.422c-.12-.254-.094-.68.07-1.202a5.63 5.63 0 01.478-1.066l11.283-19.45c.631-1.107 1.495-1.816 1.928-1.586.211.111.29.424.224.881a4.606 4.606 0 01-.576 1.537l-.037.064-11.29 19.465c-.41.708-.94 1.282-1.38 1.498-.332.162-.58.112-.7-.141z" fill="#90C5FF"/>
  </g>
  <g filter="url(#Snow__filter1_f)">
    <path d="M40.033 49.004c.155-.274.16-.718.015-1.25a4.709 4.709 0 00-.46-1.077L28.3 27.23c-.63-1.107-1.556-1.78-2.068-1.506-.248.134-.363.467-.323.94.067.551.248 1.083.533 1.56l.037.064L37.776 47.75c.41.707.967 1.266 1.45 1.457.366.144.652.072.807-.203z" fill="#90C5FF"/>
  </g>
  <g filter="url(#Snow__filter2_f)">
    <path d="M40.509 48.88c.268-.34.368-.84.28-1.405a3.276 3.276 0 00-.4-1.11L29.077 26.93c-.627-1.11-1.746-1.67-2.5-1.256-.365.2-.59.597-.635 1.118a2.904 2.904 0 00.4 1.639l.037.063 11.32 19.45c.41.706 1.05 1.216 1.67 1.33a1.124 1.124 0 001.14-.396z" fill="#A6D0FF"/>
  </g>
  <g filter="url(#Snow__filter3_f)">
    <path d="M22.814 49.197c-.1-.242-.06-.66.114-1.175.129-.368.292-.723.488-1.06l11.279-19.453c.632-1.107 1.463-1.835 1.856-1.628.19.1.251.402.17.85a5.048 5.048 0 01-.598 1.525l-.036.064L24.8 47.787c-.41.708-.925 1.29-1.343 1.52-.315.172-.544.133-.643-.11z" fill="#AED5FF"/>
  </g>
  <g filter="url(#Snow__filter4_f)">
    <path d="M16.697 36.446c.16.402.542.738 1.076.946.371.139.765.21 1.161.208l22.486-.08c1.275.012 2.32-.677 2.338-1.536.01-.417-.222-.81-.651-1.11a2.904 2.904 0 00-1.619-.472h-.073l-22.504.078c-.818.002-1.579.301-1.987.782a1.124 1.124 0 00-.227 1.184z" fill="#A6D0FF"/>
  </g>
  <g filter="url(#Snow__filter5_f)">
    <path d="M27.81 30.217a1.05 1.05 0 00-.164.818c.038.227.117.446.233.645l6.584 11.31c.365.647 1.016.973 1.455.732a.78.78 0 00.37-.651 1.69 1.69 0 00-.234-.953l-.022-.038-6.588-11.32a1.547 1.547 0 00-.972-.773.655.655 0 00-.662.23z" fill="#A6D0FF"/>
  </g>
  <g filter="url(#Snow__filter6_f)">
    <path d="M32.352 40.55a5.406 5.406 0 100-10.812 5.406 5.406 0 000 10.812z" fill="#A3CDFF"/>
  </g>
  <g filter="url(#Snow__filter7_f)">
    <path d="M31.288 42.323a2.57 2.57 0 100-5.14 2.57 2.57 0 000 5.14z" fill="#A3CDFF"/>
  </g>
  <g filter="url(#Snow__filter8_f)">
    <path d="M28.275 34.7a2.57 2.57 0 100-5.14 2.57 2.57 0 000 5.14z" fill="#A3CDFF"/>
  </g>
  <circle cx="50.155" cy="57.545" r="1.086" fill="#60A4F5"/>
  <circle cx="10.324" cy="51.942" r="1.086" fill="#60A4F5"/>
  <circle cx="55.929" cy="50.075" r="1.086" fill="#60A4F5" fill-opacity=".3"/>
  <circle cx="24.619" cy="61.36" r="1.086" fill="#60A4F5" fill-opacity=".3"/>
  <defs>
    <filter id="Snow__filter0_f" x="20.128" y="23.075" width="20.08" height="29.582" filterUnits="userSpaceOnUse" color-interpolation-filters="sRGB">
      <feFlood flood-opacity="0" result="BackgroundImageFix"/>
      <feBlend in="SourceGraphic" in2="BackgroundImageFix" result="shape"/>
      <feGaussianBlur stdDeviation="1.5" result="effect1_foregroundBlur"/>
    </filter>
    <filter id="Snow__filter1_f" x=".901" y=".663" width="64.252" height="73.616" filterUnits="userSpaceOnUse" color-interpolation-filters="sRGB">
      <feFlood flood-opacity="0" result="BackgroundImageFix"/>
      <feBlend in="SourceGraphic" in2="BackgroundImageFix" result="shape"/>
      <feGaussianBlur stdDeviation="12.5" result="effect1_foregroundBlur"/>
    </filter>
    <filter id="Snow__filter2_f" x="22.938" y="22.538" width="20.882" height="29.766" filterUnits="userSpaceOnUse" color-interpolation-filters="sRGB">
      <feFlood flood-opacity="0" result="BackgroundImageFix"/>
      <feBlend in="SourceGraphic" in2="BackgroundImageFix" result="shape"/>
      <feGaussianBlur stdDeviation="1.5" result="effect1_foregroundBlur"/>
    </filter>
    <filter id="Snow__filter3_f" x="19.76" y="22.846" width="19.996" height="29.566" filterUnits="userSpaceOnUse" color-interpolation-filters="sRGB">
      <feFlood flood-opacity="0" result="BackgroundImageFix"/>
      <feBlend in="SourceGraphic" in2="BackgroundImageFix" result="shape"/>
      <feGaussianBlur stdDeviation="1.5" result="effect1_foregroundBlur"/>
    </filter>
    <filter id="Snow__filter4_f" x="13.618" y="31.402" width="33.14" height="9.198" filterUnits="userSpaceOnUse" color-interpolation-filters="sRGB">
      <feFlood flood-opacity="0" result="BackgroundImageFix"/>
      <feBlend in="SourceGraphic" in2="BackgroundImageFix" result="shape"/>
      <feGaussianBlur stdDeviation="1.5" result="effect1_foregroundBlur"/>
    </filter>
    <filter id="Snow__filter5_f" x="7.623" y="9.969" width="48.667" height="53.832" filterUnits="userSpaceOnUse" color-interpolation-filters="sRGB">
      <feFlood flood-opacity="0" result="BackgroundImageFix"/>
      <feBlend in="SourceGraphic" in2="BackgroundImageFix" result="shape"/>
      <feGaussianBlur stdDeviation="10" result="effect1_foregroundBlur"/>
    </filter>
    <filter id="Snow__filter6_f" x="24.945" y="27.738" width="14.813" height="14.813" filterUnits="userSpaceOnUse" color-interpolation-filters="sRGB">
      <feFlood flood-opacity="0" result="BackgroundImageFix"/>
      <feBlend in="SourceGraphic" in2="BackgroundImageFix" result="shape"/>
      <feGaussianBlur stdDeviation="1" result="effect1_foregroundBlur"/>
    </filter>
    <filter id="Snow__filter7_f" x="26.718" y="35.182" width="9.14" height="9.14" filterUnits="userSpaceOnUse" color-interpolation-filters="sRGB">
      <feFlood flood-opacity="0" result="BackgroundImageFix"/>
      <feBlend in="SourceGraphic" in2="BackgroundImageFix" result="shape"/>
      <feGaussianBlur stdDeviation="1" result="effect1_foregroundBlur"/>
    </filter>
    <filter id="Snow__filter8_f" x="23.705" y="27.56" width="9.14" height="9.14" filterUnits="userSpaceOnUse" color-interpolation-filters="sRGB">
      <feFlood flood-opacity="0" result="BackgroundImageFix"/>
      <feBlend in="SourceGraphic" in2="BackgroundImageFix" result="shape"/>
      <feGaussianBlur stdDeviation="1" result="effect1_foregroundBlur"/>
    </filter>
    <linearGradient id="Snow__paint0_linear" x1="35.143" y1="33.748" x2="28.91" y2="37.346" gradientUnits="userSpaceOnUse">
      <stop stop-color="#3D9BFA"/>
      <stop offset="1" stop-color="#CBE4FF"/>
    </linearGradient>
    <linearGradient id="Snow__paint1_linear" x1="35.108" y1="37.347" x2="28.875" y2="33.748" gradientUnits="userSpaceOnUse">
      <stop stop-color="#3D9BFA"/>
      <stop offset="1" stop-color="#CBE4FF"/>
    </linearGradient>
    <linearGradient id="Snow__paint2_linear" x1="32.039" y1="31.919" x2="32.039" y2="39.115" gradientUnits="userSpaceOnUse">
      <stop stop-color="#3D9BFA"/>
      <stop offset="1" stop-color="#CBE4FF"/>
    </linearGradient>
  </defs>
</svg>
