<svg width="37" height="42" fill="none" xmlns="http://www.w3.org/2000/svg">
  <g clip-path="url(#Frame__clip0)">
    <path d="M18.33 21.64h-.04l-.01 19.77h.74v-2.33l1.6 1.39 1.01-1.17-2.61-2.27v-1.8l3.49 3.04 1.02-1.17-4.51-3.92V31.6l.94-1.08-.94-.81v-1.79l1.82 1.57 1.01-1.17-2.83-2.46v-3.87l-.6-.35h-.09z" fill="#fff"/>
    <path d="M18.2 21.64l-.32.19-.02-.04-.3.17-.01 3.9-2.83 2.46 1.02 1.17 1.81-1.57v1.78l-.93.82.93 1.08v1.58l-4.51 3.91 1.01 1.18 3.5-3.04v1.8l-2.62 2.26 1.02 1.18 1.6-1.39v2.33h.73l.01-19.77h-.09z" fill="#C0E3FF"/>
    <path d="M17.51 21.19l-.02-.03L.37 31.03l.36.64 2.02-1.17-.4 2.08 1.52.3.66-3.4 1.55-.9-.88 4.55 1.53.29 1.13-5.86 1.37-.79 1.41.27.23-1.22 1.55-.89-.46 2.36 1.53.29.71-3.68 3.36-1.94v-.69l-.05-.08z" fill="#fff"/>
    <path d="M17.45 21.08l-.32-.19.02-.04-.3-.17-3.38 1.95-3.55-1.22-.5 1.46 2.27.79-1.55.89-1.17-.4-.47 1.35-1.37.79-5.65-1.96-.51 1.47 4.38 1.51-1.55.9-3.27-1.14-.51 1.47 2 .69L0 30.4l.37.63 17.12-9.87-.04-.08z" fill="#C0E3FF"/>
    <path d="M17.49 20.26l.02-.04L.39 10.33l-.36.63 2.02 1.17-2 .69.5 1.47 3.28-1.13 1.55.89L1 15.57l.51 1.46 5.65-1.94 1.37.78.46 1.35 1.17-.4 1.55.89-2.27.79.51 1.47 3.54-1.22 3.36 1.93.6-.34.04-.08z" fill="#fff"/>
    <path d="M17.56 20.14v-.37h.04v-.34l-3.37-1.96-.71-3.68-1.53.3.46 2.36-1.55-.9-.24-1.22-1.4.28-1.37-.8-1.13-5.87-1.53.3.88 4.55-1.55-.9-.65-3.4-1.53.29.4 2.08L.76 9.7l-.37.63 17.12 9.89.05-.08z" fill="#C0E3FF"/>
    <path d="M18.29 19.77h.04L18.34 0h-.73v2.34L16.01.95l-1.02 1.17 2.62 2.27v1.79l-3.5-3.04-1.02 1.18 4.52 3.92v1.58l-.94 1.07.94.82-.01 1.79-1.81-1.58-1.02 1.17 2.83 2.46v3.88l.6.34h.09z" fill="#fff"/>
    <path d="M18.42 19.77l.32-.18.03.04.3-.18v-3.9l2.83-2.46-1.01-1.17-1.82 1.58v-1.79l.94-.81-.94-1.08V8.24l4.52-3.92-1.02-1.17-3.5 3.03V4.39l2.62-2.27L20.67.95l-1.6 1.39.01-2.34h-.74l-.01 19.77h.09z" fill="#C0E3FF"/>
    <path d="M19.11 20.22l.02.04 17.13-9.88-.37-.64-2.02 1.17.4-2.08-1.52-.3-.66 3.41-1.55.89.88-4.54-1.52-.3-1.14 5.87-1.37.79-1.4-.27-.24 1.21-1.55.9.46-2.36-1.52-.3-.72 3.68-3.35 1.94v.69l.04.08z" fill="#fff"/>
    <path d="M36.62 11.02l-.36-.64-17.13 9.88.05.08.32.18-.02.04.3.17 3.38-1.95 3.54 1.23.51-1.47-2.28-.78 1.55-.89 1.18.4.46-1.35 1.37-.79 5.65 1.95.51-1.47-4.38-1.51 1.55-.89 3.28 1.13.51-1.47-2.01-.69 2.02-1.16z" fill="#C0E3FF"/>
    <path d="M19.13 21.16l-.02.03 17.12 9.9.36-.64-2.01-1.17 2-.69-.51-1.47-3.28 1.14-1.54-.9 4.37-1.51-.5-1.47-5.65 1.95-1.37-.79-.47-1.35-1.17.4-1.55-.89 2.27-.78-.5-1.47-3.55 1.22-3.35-1.94-.6.35-.05.08z" fill="#fff"/>
    <path d="M19.07 21.27v.37h-.05v.35l3.38 1.95.71 3.68 1.52-.29-.45-2.36 1.55.89.23 1.22 1.41-.27 1.36.79 1.14 5.87 1.52-.29-.88-4.55 1.55.89.66 3.41 1.52-.3-.4-2.08 2.02 1.17.37-.63-17.12-9.9-.04.08z" fill="#C0E3FF"/>
    <path d="M19.95 19.9c.44.99-.01 2.14-.99 2.58-.99.43-2.14-.01-2.58-1-.44-.99.01-2.14 1-2.57.98-.44 2.13.01 2.57.99z" fill="#C0E3FF"/>
  </g>
  <defs>
    <clipPath id="Frame__clip0">
      <path fill="#fff" d="M0 0h36.62v41.41H0z"/>
    </clipPath>
  </defs>
</svg>
