<svg width="56" height="48" fill="none" xmlns="http://www.w3.org/2000/svg">
  <path d="M50.662 12.226c0-4.57-10.618-8.273-23.721-8.273-13.091 0-23.71 3.703-23.71 8.273 0 1.418 1.032 2.754 2.837 3.926-1.793.984-2.836 2.133-2.836 3.375 0 2.344 3.703 4.394 9.177 5.461.48 1.64 3.093 3.059 6.844 3.926-.246.328-.375.668-.375 1.02 0 .984 1.02 1.886 2.695 2.577-1.664.622-2.695 1.454-2.695 2.368 0 .562.375 1.078 1.043 1.547-1.606.457-2.625 1.148-2.625 1.921 0 .739.937 1.407 2.414 1.852-1.442.328-2.414.903-2.414 1.559 0 .55.703 1.054 1.804 1.394-.152.141-.246.305-.246.469 0 .61 1.196 1.125 2.813 1.277-.223.14-.34.293-.34.47 0 .526 1.23.96 2.743.96 1.511 0 2.742-.434 2.742-.96 0-.364-.574-.669-1.406-.833.633-.234 1.02-.55 1.02-.902 0-.164-.095-.328-.247-.47 1.102-.339 1.805-.83 1.805-1.394 0-.421-.399-.796-1.055-1.113 2.65-.351 4.536-1.254 4.536-2.309 0-.046-.012-.081-.012-.128 4.184-.41 7.266-1.747 7.266-3.34 0-.645-.504-1.242-1.371-1.758 2.754-.727 4.536-1.887 4.536-3.188 0-.832-.727-1.605-1.981-2.25 1.98-.902 3.153-2.027 3.153-3.246 0-1.441-1.618-2.742-4.255-3.703.223-.387.34-.797.34-1.207 0-.059-.011-.129-.011-.2 6.89-1.44 11.532-4.077 11.532-7.1z" fill="#F7F9FF"/>
  <path d="M50.662 12.226c0-4.57-10.618-8.273-23.721-8.273-13.091 0-23.71 3.703-23.71 8.273 0 1.418 1.032 2.754 2.837 3.926-1.793.984-2.836 2.133-2.836 3.375 0 2.344 3.703 4.394 9.177 5.461.48 1.64 3.093 3.059 6.844 3.926-.246.328-.375.668-.375 1.02 0 .984 1.02 1.886 2.695 2.577-1.664.622-2.695 1.454-2.695 2.368 0 .562.375 1.078 1.043 1.547-1.606.457-2.625 1.148-2.625 1.921 0 .739.937 1.407 2.414 1.852-1.442.328-2.414.903-2.414 1.559 0 .55.703 1.054 1.804 1.394-.152.141-.246.305-.246.469 0 .61 1.196 1.125 2.813 1.277-.223.14-.34.293-.34.47 0 .526 1.23.96 2.743.96 1.511 0 2.742-.434 2.742-.96 0-.364-.574-.669-1.406-.833.633-.234 1.02-.55 1.02-.902 0-.164-.095-.328-.247-.47 1.102-.339 1.805-.83 1.805-1.394 0-.421-.399-.796-1.055-1.113 2.65-.351 4.536-1.254 4.536-2.309 0-.046-.012-.081-.012-.128 4.184-.41 7.266-1.747 7.266-3.34 0-.645-.504-1.242-1.371-1.758 2.754-.727 4.536-1.887 4.536-3.188 0-.832-.727-1.605-1.981-2.25 1.98-.902 3.153-2.027 3.153-3.246 0-1.441-1.618-2.742-4.255-3.703.223-.387.34-.797.34-1.207 0-.059-.011-.129-.011-.2 6.89-1.44 11.532-4.077 11.532-7.1z" fill="url(#Storm__paint0_linear)" fill-opacity=".7"/>
  <g filter="url(#Storm__filter0_f)">
    <path d="M25.097 4.345c9.627-1.16 25.849 4.348 26.27 7.189-3.398.736-7.829 8.235-11.406 7.955-4.472-.349 4.407 7.612.654 12.62-3.002 4.007-16.732 7.86-13.67 11.628-4.108-.745-2.466-.471-8.726-4.71-7.825-5.298 4.803-8.618 1.176-9.535C15.767 28.575.988 13.476 5.279 11.534 9.57 9.59 13.064 5.795 25.097 4.345z" fill="url(#Storm__paint1_linear)" fill-opacity=".5"/>
  </g>
  <g filter="url(#Storm__filter1_f)">
    <path d="M5.372 10.895c-.339-2.773 4.425-3.58 6.85-3.636.394.987 1.065 3.213.591 4.228-.584 1.254 6.672 3.415 10.68 4.608l.145.043c3.18.947 10.74-.394 14.122-1.184-.902 1.156-3.704 3.89-7.695 5.582-4.99 2.114-10.571-1.945-11.586-.93-1.014 1.014-9.894-1.692-11.247-2.96-1.353-1.269-1.437-2.284-1.86-5.75z" fill="url(#Storm__paint2_linear)"/>
  </g>
  <g filter="url(#Storm__filter2_f)">
    <path d="M23.82 34.54c-4.093-.878-4.404-4.352-4.047-5.98 1.506.132 4.864.572 6.254 1.289 1.737.896 6.28-3.158 8.72-5.319 1.952-1.728 1.37-7.267.834-9.82 1.517 1.057 4.985 3.998 6.722 7.313 2.17 4.143-4.74 6.225-3.449 7.3 1.292 1.075-4.249 5.878-6.337 6.27-2.09.392-3.58.045-8.697-1.053z" fill="url(#Storm__paint3_linear)" fill-opacity=".7"/>
  </g>
  <path d="M27.832 16.937c-10.712 0-19.502-3.539-20.428-8.05-.61.75-.937 1.546-.937 2.39 0 3.973 7.465 7.196 16.688 7.196 4.548 0 8.673-.786 11.673-2.051a47.2 47.2 0 01-6.996.515zm-3.094 19.758c-3.024 0-5.497-.995-5.767-2.273-.175.21-.269.434-.269.68 0 1.125 2.11 2.027 4.711 2.027 1.29 0 2.45-.222 3.294-.586-.61.094-1.278.152-1.969.152z" fill="url(#Storm__paint4_linear)"/>
  <path d="M27.832 16.937c-10.712 0-19.502-3.539-20.428-8.05-.61.75-.937 1.546-.937 2.39 0 3.973 7.465 7.196 16.688 7.196 4.548 0 8.673-.786 11.673-2.051a47.2 47.2 0 01-6.996.515zm-3.094 19.758c-3.024 0-5.497-.995-5.767-2.273-.175.21-.269.434-.269.68 0 1.125 2.11 2.027 4.711 2.027 1.29 0 2.45-.222 3.294-.586-.61.094-1.278.152-1.969.152z" fill="url(#Storm__paint5_linear)"/>
  <path d="M43.595 11.57c.809.774 1.242 1.617 1.242 2.496 0 4.008-9.165 7.266-20.463 7.266-3.996 0-7.723-.41-10.876-1.113 3.493 1.16 8.18 1.863 13.337 1.863 10.794 0 19.56-3.106 19.56-6.938 0-1.312-1.019-2.53-2.8-3.574zM19.382 28.996c0-.152.035-.304.082-.445-.621.457-.973.972-.973 1.512 0 1.945 4.489 3.527 10.032 3.527 3.153 0 5.954-.516 7.794-1.313-1.711.387-3.727.61-5.907.61-6.094-.012-11.028-1.746-11.028-3.89zm20.228-7.898c1.418.691 2.274 1.535 2.274 2.46 0 2.274-5.075 4.126-11.333 4.126-2.953 0-5.626-.41-7.642-1.09 2.063 1.008 5.356 1.652 9.06 1.652 6.258 0 11.333-1.84 11.333-4.125 0-1.183-1.418-2.262-3.692-3.023zm-8.93 17.144c-.282 1.008-2.66 1.793-5.567 1.793-1.829 0-3.446-.316-4.465-.797.609.88 2.812 1.524 5.45 1.524 3.105 0 5.625-.903 5.625-2.004 0-.188-.094-.363-.223-.539a11.18 11.18 0 01-.645.023h-.175z" fill="url(#Storm__paint6_linear)"/>
  <path d="M43.595 11.57c.809.774 1.242 1.617 1.242 2.496 0 4.008-9.165 7.266-20.463 7.266-3.996 0-7.723-.41-10.876-1.113 3.493 1.16 8.18 1.863 13.337 1.863 10.794 0 19.56-3.106 19.56-6.938 0-1.312-1.019-2.53-2.8-3.574zM19.382 28.996c0-.152.035-.304.082-.445-.621.457-.973.972-.973 1.512 0 1.945 4.489 3.527 10.032 3.527 3.153 0 5.954-.516 7.794-1.313-1.711.387-3.727.61-5.907.61-6.094-.012-11.028-1.746-11.028-3.89zm20.228-7.898c1.418.691 2.274 1.535 2.274 2.46 0 2.274-5.075 4.126-11.333 4.126-2.953 0-5.626-.41-7.642-1.09 2.063 1.008 5.356 1.652 9.06 1.652 6.258 0 11.333-1.84 11.333-4.125 0-1.183-1.418-2.262-3.692-3.023zm-8.93 17.144c-.282 1.008-2.66 1.793-5.567 1.793-1.829 0-3.446-.316-4.465-.797.609.88 2.812 1.524 5.45 1.524 3.105 0 5.625-.903 5.625-2.004 0-.188-.094-.363-.223-.539a11.18 11.18 0 01-.645.023h-.175z" fill="url(#Storm__paint7_linear)"/>
  <defs>
    <linearGradient id="Storm__paint0_linear" x1="26.947" y1="3.953" x2="26.947" y2="46.328" gradientUnits="userSpaceOnUse">
      <stop stop-color="#E0E8FF" stop-opacity="0"/>
      <stop offset=".927" stop-color="#C7D4FF" stop-opacity=".847"/>
      <stop offset="1" stop-color="#C9D6FD"/>
    </linearGradient>
    <linearGradient id="Storm__paint1_linear" x1="52.235" y1="22.534" x2="3.849" y2="26.349" gradientUnits="userSpaceOnUse">
      <stop stop-color="#E0E8FF" stop-opacity="0"/>
      <stop offset=".932" stop-color="#C7D4FF" stop-opacity=".847"/>
      <stop offset="1" stop-color="#C9D6FD"/>
    </linearGradient>
    <linearGradient id="Storm__paint2_linear" x1="21.557" y1="7.259" x2="21.557" y2="21.155" gradientUnits="userSpaceOnUse">
      <stop stop-color="#E0E8FF" stop-opacity="0"/>
      <stop offset=".932" stop-color="#C7D4FF" stop-opacity=".847"/>
      <stop offset="1" stop-color="#C9D6FD"/>
    </linearGradient>
    <linearGradient id="Storm__paint3_linear" x1="21.462" y1="22.38" x2="41.664" y2="27.901" gradientUnits="userSpaceOnUse">
      <stop stop-color="#E0E8FF" stop-opacity="0"/>
      <stop offset=".932" stop-color="#C7D4FF" stop-opacity=".847"/>
      <stop offset="1" stop-color="#C9D6FD"/>
    </linearGradient>
    <linearGradient id="Storm__paint4_linear" x1="20.648" y1="8.886" x2="20.648" y2="37.129" gradientUnits="userSpaceOnUse">
      <stop stop-color="#E0E8FF" stop-opacity="0"/>
      <stop offset=".948" stop-color="#C7D4FF" stop-opacity=".848"/>
      <stop offset="1" stop-color="#C9D6FD"/>
    </linearGradient>
    <linearGradient id="Storm__paint5_linear" x1="20.648" y1="8.886" x2="20.648" y2="37.129" gradientUnits="userSpaceOnUse">
      <stop stop-color="#fff"/>
      <stop offset="1" stop-color="#fff" stop-opacity="0"/>
    </linearGradient>
    <linearGradient id="Storm__paint6_linear" x1="29.947" y1="11.57" x2="29.947" y2="40.762" gradientUnits="userSpaceOnUse">
      <stop stop-color="#E0E8FF" stop-opacity="0"/>
      <stop offset=".948" stop-color="#C7D4FF" stop-opacity=".848"/>
      <stop offset="1" stop-color="#C9D6FD"/>
    </linearGradient>
    <linearGradient id="Storm__paint7_linear" x1="29.947" y1="11.57" x2="29.947" y2="40.762" gradientUnits="userSpaceOnUse">
      <stop stop-color="#fff"/>
      <stop offset="1" stop-color="#fff" stop-opacity="0"/>
    </linearGradient>
    <filter id="Storm__filter0_f" x=".505" y=".187" width="54.862" height="47.55" filterUnits="userSpaceOnUse" color-interpolation-filters="sRGB">
      <feFlood flood-opacity="0" result="BackgroundImageFix"/>
      <feBlend in="SourceGraphic" in2="BackgroundImageFix" result="shape"/>
      <feGaussianBlur stdDeviation="2" result="effect1_foregroundBlur"/>
    </filter>
    <filter id="Storm__filter1_f" x="1.355" y="3.259" width="40.406" height="21.896" filterUnits="userSpaceOnUse" color-interpolation-filters="sRGB">
      <feFlood flood-opacity="0" result="BackgroundImageFix"/>
      <feBlend in="SourceGraphic" in2="BackgroundImageFix" result="shape"/>
      <feGaussianBlur stdDeviation="2" result="effect1_foregroundBlur"/>
    </filter>
    <filter id="Storm__filter2_f" x="15.663" y="10.71" width="31.065" height="29.038" filterUnits="userSpaceOnUse" color-interpolation-filters="sRGB">
      <feFlood flood-opacity="0" result="BackgroundImageFix"/>
      <feBlend in="SourceGraphic" in2="BackgroundImageFix" result="shape"/>
      <feGaussianBlur stdDeviation="2" result="effect1_foregroundBlur"/>
    </filter>
  </defs>
</svg>
