<svg width="159" height="142" fill="none" xmlns="http://www.w3.org/2000/svg">
  <path d="M159 27.732C159 12.412 123.405 0 79.48 0 35.595 0 0 12.413 0 27.732c0 4.753 3.457 9.231 9.508 13.16C3.497 44.19 0 48.04 0 52.203c0 7.856 12.415 14.73 30.763 18.305 1.61 5.5 10.372 10.252 22.944 13.159-.825 1.1-1.257 2.24-1.257 3.417 0 3.3 3.418 6.325 9.036 8.642-5.579 2.082-9.036 4.871-9.036 7.935 0 1.885 1.257 3.614 3.497 5.185-5.383 1.532-8.801 3.85-8.801 6.442 0 2.475 3.143 4.714 8.093 6.206-4.832 1.1-8.093 3.025-8.093 5.225 0 1.846 2.357 3.535 6.05 4.674-.51.472-.825 1.021-.825 1.571 0 2.043 4.008 3.771 9.43 4.282-.747.471-1.14.982-1.14 1.571 0 1.768 4.126 3.221 9.194 3.221 5.068 0 9.193-1.453 9.193-3.221 0-1.217-1.925-2.239-4.714-2.789 2.121-.785 3.418-1.846 3.418-3.024 0-.55-.315-1.1-.825-1.572 3.693-1.139 6.05-2.788 6.05-4.674 0-1.414-1.336-2.671-3.536-3.732 8.88-1.178 15.205-4.203 15.205-7.738 0-.157-.04-.275-.04-.432 14.026-1.375 24.359-5.853 24.359-11.195 0-2.16-1.689-4.164-4.597-5.892 9.233-2.436 15.205-6.324 15.205-10.684 0-2.79-2.436-5.382-6.64-7.542 6.64-3.025 10.569-6.796 10.569-10.881 0-4.832-5.422-9.192-14.262-12.413.747-1.296 1.14-2.671 1.14-4.046 0-.196-.04-.432-.04-.668C143.442 46.705 159 37.866 159 27.732z" fill="#21327A"/>
  <path d="M82.466 43.523c-35.91 0-65.376-11.863-68.48-26.986-2.042 2.514-3.142 5.185-3.142 8.014 0 13.316 25.026 24.118 55.946 24.118 15.244 0 29.074-2.632 39.131-6.874-7.307 1.1-15.204 1.728-23.455 1.728zM72.094 109.75c-10.136 0-18.426-3.338-19.33-7.62-.59.707-.903 1.453-.903 2.278 0 3.771 7.072 6.796 15.794 6.796 4.321 0 8.21-.746 11.04-1.964-2.043.314-4.283.51-6.6.51z" fill="#fff"/>
  <path d="M135.309 25.532c2.711 2.593 4.165 5.421 4.165 8.367 0 13.434-30.724 24.354-68.598 24.354-13.397 0-25.89-1.374-36.46-3.731 11.709 3.889 27.424 6.245 44.71 6.245 36.185 0 65.573-10.41 65.573-23.254 0-4.4-3.418-8.484-9.39-11.98zM54.14 83.943c0-.51.117-1.021.274-1.493-2.082 1.532-3.26 3.26-3.26 5.067 0 6.521 15.047 11.824 33.63 11.824 10.569 0 19.959-1.728 26.127-4.4-5.736 1.297-12.494 2.043-19.801 2.043-20.43-.04-36.97-5.853-36.97-13.041zm67.811-26.475c4.754 2.317 7.622 5.146 7.622 8.249 0 7.62-17.012 13.827-37.992 13.827-9.9 0-18.858-1.375-25.616-3.654 6.915 3.379 17.955 5.539 30.37 5.539 20.98 0 37.992-6.167 37.992-13.827 0-3.967-4.754-7.581-12.376-10.134zm-29.938 57.467c-.943 3.379-8.918 6.01-18.662 6.01-6.129 0-11.55-1.06-14.968-2.671 2.042 2.946 9.429 5.107 18.269 5.107 10.411 0 18.858-3.025 18.858-6.717 0-.629-.314-1.218-.747-1.807-.707.039-1.414.078-2.16.078h-.59z" fill="#fff"/>
</svg>
