<svg width="117" height="97" fill="none" xmlns="http://www.w3.org/2000/svg">
  <circle cx="3.71" cy=".633" r=".633" fill="#0C193B"/>
  <circle cx="8.876" cy=".633" r=".633" fill="#0C193B"/>
  <circle cx="14.042" cy=".633" r=".633" fill="#0C193B"/>
  <circle cx="19.208" cy=".633" r=".633" fill="#0C193B"/>
  <circle cx="24.374" cy=".633" r=".633" fill="#0C193B"/>
  <circle cx="29.541" cy=".633" r=".633" fill="#0C193B"/>
  <circle cx="34.707" cy=".633" r=".633" fill="#0C193B"/>
  <circle cx="39.873" cy=".633" r=".633" fill="#0C193B"/>
  <circle cx="45.039" cy=".633" r=".633" fill="#0C193B"/>
  <circle cx="50.205" cy=".633" r=".633" fill="#0C193B"/>
  <circle cx="55.371" cy=".633" r=".633" fill="#0C193B"/>
  <circle cx="60.538" cy=".633" r=".633" fill="#0C193B"/>
  <circle cx="65.704" cy=".633" r=".633" fill="#0C193B"/>
  <circle cx="3.71" cy="5.02" r=".633" fill="#0C193B"/>
  <circle cx="8.876" cy="5.02" r=".633" fill="#0C193B"/>
  <circle cx="14.042" cy="5.02" r=".633" fill="#0C193B"/>
  <circle cx="19.208" cy="5.02" r=".633" fill="#0C193B"/>
  <circle cx="24.374" cy="5.02" r=".633" fill="#0C193B"/>
  <circle cx="29.541" cy="5.02" r=".633" fill="#0C193B"/>
  <circle cx="34.707" cy="5.02" r=".633" fill="#0C193B"/>
  <circle cx="39.873" cy="5.02" r=".633" fill="#0C193B"/>
  <circle cx="45.039" cy="5.02" r=".633" fill="#0C193B"/>
  <circle cx="50.205" cy="5.02" r=".633" fill="#0C193B"/>
  <circle cx="55.371" cy="5.02" r=".633" fill="#0C193B"/>
  <circle cx="60.538" cy="5.02" r=".633" fill="#0C193B"/>
  <circle cx="65.704" cy="5.02" r=".633" fill="#0C193B"/>
  <circle cx="3.71" cy="5.02" r=".633" fill="#0C193B"/>
  <circle cx="8.876" cy="5.02" r=".633" fill="#0C193B"/>
  <circle cx="14.042" cy="5.02" r=".633" fill="#0C193B"/>
  <circle cx="19.208" cy="5.02" r=".633" fill="#0C193B"/>
  <circle cx="24.374" cy="5.02" r=".633" fill="#0C193B"/>
  <circle cx="29.541" cy="5.02" r=".633" fill="#0C193B"/>
  <circle cx="34.707" cy="5.02" r=".633" fill="#0C193B"/>
  <circle cx="39.873" cy="5.02" r=".633" fill="#0C193B"/>
  <circle cx="45.039" cy="5.02" r=".633" fill="#0C193B"/>
  <circle cx="50.205" cy="5.02" r=".633" fill="#0C193B"/>
  <circle cx="55.371" cy="5.02" r=".633" fill="#0C193B"/>
  <circle cx="60.538" cy="5.02" r=".633" fill="#0C193B"/>
  <circle cx="65.704" cy="5.02" r=".633" fill="#0C193B"/>
  <circle cx="3.71" cy="9.407" r=".633" fill="#0C193B"/>
  <circle cx="8.876" cy="9.407" r=".633" fill="#0C193B"/>
  <circle cx="14.042" cy="9.407" r=".633" fill="#0C193B"/>
  <circle cx="19.208" cy="9.407" r=".633" fill="#0C193B"/>
  <circle cx="24.374" cy="9.407" r=".633" fill="#0C193B"/>
  <circle cx="29.541" cy="9.407" r=".633" fill="#0C193B"/>
  <circle cx="34.707" cy="9.407" r=".633" fill="#0C193B"/>
  <circle cx="39.873" cy="9.407" r=".633" fill="#0C193B"/>
  <circle cx="45.039" cy="9.407" r=".633" fill="#0C193B"/>
  <circle cx="50.205" cy="9.407" r=".633" fill="#0C193B"/>
  <circle cx="55.371" cy="9.407" r=".633" fill="#0C193B"/>
  <circle cx="60.538" cy="9.407" r=".633" fill="#0C193B"/>
  <circle cx="65.704" cy="9.407" r=".633" fill="#0C193B"/>
  <circle cx="3.71" cy="13.794" r=".633" fill="#0C193B"/>
  <circle cx="8.876" cy="13.794" r=".633" fill="#0C193B"/>
  <circle cx="14.042" cy="13.794" r=".633" fill="#0C193B"/>
  <circle cx="19.208" cy="13.794" r=".633" fill="#0C193B"/>
  <circle cx="24.374" cy="13.794" r=".633" fill="#0C193B"/>
  <circle cx="29.541" cy="13.794" r=".633" fill="#0C193B"/>
  <circle cx="34.707" cy="13.794" r=".633" fill="#0C193B"/>
  <circle cx="39.873" cy="13.794" r=".633" fill="#0C193B"/>
  <circle cx="45.039" cy="13.794" r=".633" fill="#0C193B"/>
  <circle cx="50.205" cy="13.794" r=".633" fill="#0C193B"/>
  <circle cx="55.371" cy="13.794" r=".633" fill="#0C193B"/>
  <circle cx="60.538" cy="13.794" r=".633" fill="#0C193B"/>
  <circle cx="65.704" cy="13.794" r=".633" fill="#0C193B"/>
  <circle cx="3.71" cy="18.181" r=".633" fill="#0C193B"/>
  <circle cx="8.876" cy="18.181" r=".633" fill="#0C193B"/>
  <circle cx="14.042" cy="18.181" r=".633" fill="#0C193B"/>
  <circle cx="19.208" cy="18.181" r=".633" fill="#0C193B"/>
  <circle cx="24.374" cy="18.181" r=".633" fill="#0C193B"/>
  <circle cx="29.541" cy="18.181" r=".633" fill="#0C193B"/>
  <circle cx="34.707" cy="18.181" r=".633" fill="#0C193B"/>
  <circle cx="39.873" cy="18.181" r=".633" fill="#0C193B"/>
  <circle cx="45.039" cy="18.181" r=".633" fill="#0C193B"/>
  <circle cx="50.205" cy="18.181" r=".633" fill="#0C193B"/>
  <circle cx="55.371" cy="18.181" r=".633" fill="#0C193B"/>
  <circle cx="60.538" cy="18.181" r=".633" fill="#0C193B"/>
  <circle cx="65.704" cy="18.181" r=".633" fill="#0C193B"/>
  <circle cx="3.71" cy="22.569" r=".633" fill="#0C193B"/>
  <circle cx="8.876" cy="22.569" r=".633" fill="#0C193B"/>
  <circle cx="14.042" cy="22.569" r=".633" fill="#0C193B"/>
  <circle cx="19.208" cy="22.569" r=".633" fill="#0C193B"/>
  <circle cx="24.374" cy="22.569" r=".633" fill="#0C193B"/>
  <circle cx="29.541" cy="22.569" r=".633" fill="#0C193B"/>
  <circle cx="34.707" cy="22.569" r=".633" fill="#0C193B"/>
  <circle cx="39.873" cy="22.569" r=".633" fill="#0C193B"/>
  <circle cx="45.039" cy="22.569" r=".633" fill="#0C193B"/>
  <circle cx="50.205" cy="22.569" r=".633" fill="#0C193B"/>
  <circle cx="55.371" cy="22.569" r=".633" fill="#0C193B"/>
  <circle cx="60.538" cy="22.569" r=".633" fill="#0C193B"/>
  <circle cx="65.704" cy="22.569" r=".633" fill="#0C193B"/>
  <circle cx="3.71" cy="26.956" r=".633" fill="#0C193B"/>
  <circle cx="8.876" cy="26.956" r=".633" fill="#0C193B"/>
  <circle cx="14.042" cy="26.956" r=".633" fill="#0C193B"/>
  <circle cx="19.208" cy="26.956" r=".633" fill="#0C193B"/>
  <circle cx="24.374" cy="26.956" r=".633" fill="#0C193B"/>
  <circle cx="29.541" cy="26.956" r=".633" fill="#0C193B"/>
  <circle cx="34.707" cy="26.956" r=".633" fill="#0C193B"/>
  <circle cx="39.873" cy="26.956" r=".633" fill="#0C193B"/>
  <circle cx="45.039" cy="26.956" r=".633" fill="#0C193B"/>
  <circle cx="50.205" cy="26.956" r=".633" fill="#0C193B"/>
  <circle cx="55.371" cy="26.956" r=".633" fill="#0C193B"/>
  <circle cx="60.538" cy="26.956" r=".633" fill="#0C193B"/>
  <circle cx="65.704" cy="26.956" r=".633" fill="#0C193B"/>
  <circle cx="3.71" cy="31.343" r=".633" fill="#0C193B"/>
  <circle cx="8.876" cy="31.343" r=".633" fill="#0C193B"/>
  <circle cx="14.042" cy="31.343" r=".633" fill="#0C193B"/>
  <circle cx="19.208" cy="31.343" r=".633" fill="#0C193B"/>
  <circle cx="24.374" cy="31.343" r=".633" fill="#0C193B"/>
  <circle cx="29.541" cy="31.343" r=".633" fill="#0C193B"/>
  <circle cx="34.707" cy="31.343" r=".633" fill="#0C193B"/>
  <circle cx="39.873" cy="31.343" r=".633" fill="#0C193B"/>
  <circle cx="45.039" cy="31.343" r=".633" fill="#0C193B"/>
  <circle cx="50.205" cy="31.343" r=".633" fill="#0C193B"/>
  <circle cx="55.371" cy="31.343" r=".633" fill="#0C193B"/>
  <circle cx="60.538" cy="31.343" r=".633" fill="#0C193B"/>
  <circle cx="65.704" cy="31.343" r=".633" fill="#0C193B"/>
  <circle cx="3.71" cy="35.73" r=".633" fill="#0C193B"/>
  <circle cx="8.876" cy="35.73" r=".633" fill="#0C193B"/>
  <circle cx="14.042" cy="35.73" r=".633" fill="#0C193B"/>
  <circle cx="19.208" cy="35.73" r=".633" fill="#0C193B"/>
  <circle cx="24.374" cy="35.73" r=".633" fill="#0C193B"/>
  <circle cx="29.541" cy="35.73" r=".633" fill="#0C193B"/>
  <circle cx="34.707" cy="35.73" r=".633" fill="#0C193B"/>
  <circle cx="39.873" cy="35.73" r=".633" fill="#0C193B"/>
  <circle cx="45.039" cy="35.73" r=".633" fill="#0C193B"/>
  <circle cx="50.205" cy="35.73" r=".633" fill="#0C193B"/>
  <circle cx="55.371" cy="35.73" r=".633" fill="#0C193B"/>
  <circle cx="60.538" cy="35.73" r=".633" fill="#0C193B"/>
  <circle cx="65.704" cy="35.73" r=".633" fill="#0C193B"/>
  <circle cx="3.71" cy="40.117" r=".633" fill="#0C193B"/>
  <circle cx="8.876" cy="40.117" r=".633" fill="#0C193B"/>
  <circle cx="14.042" cy="40.117" r=".633" fill="#0C193B"/>
  <circle cx="19.208" cy="40.117" r=".633" fill="#0C193B"/>
  <circle cx="24.374" cy="40.117" r=".633" fill="#0C193B"/>
  <circle cx="29.541" cy="40.117" r=".633" fill="#0C193B"/>
  <circle cx="34.707" cy="40.117" r=".633" fill="#0C193B"/>
  <circle cx="39.873" cy="40.117" r=".633" fill="#0C193B"/>
  <circle cx="45.039" cy="40.117" r=".633" fill="#0C193B"/>
  <circle cx="50.205" cy="40.117" r=".633" fill="#0C193B"/>
  <circle cx="55.371" cy="40.117" r=".633" fill="#0C193B"/>
  <circle cx="60.538" cy="40.117" r=".633" fill="#0C193B"/>
  <circle cx="65.704" cy="40.117" r=".633" fill="#0C193B"/>
  <path opacity=".522" d="M64.17 56.231a12.516 12.516 0 00-10.295-6.255A12.525 12.525 0 0040.806 61.93" stroke="#fff" stroke-linecap="round" stroke-linejoin="round"/>
  <path d="M93.529 64.507a14.706 14.706 0 00-14.667-14.705 14.705 14.705 0 10-29.411 0h-.039a14.706 14.706 0 10.383 29.407v.004h29.411v-.004A14.705 14.705 0 0093.53 64.507z" fill="#F7F9FF"/>
  <g filter="url(#Frame_21__filter0_f)">
    <path d="M58.784 59.47c4.156 4.299 4.141 11.055-.033 15.09s-10.927 3.82-15.083-.48c-4.156-4.299-4.141-11.055.033-15.09s10.927-3.82 15.083.48z" fill="url(#Frame_21__paint0_linear)"/>
  </g>
  <g filter="url(#Frame_21__filter1_f)">
    <path d="M79.54 76.95c-3.765.117-10.097-.294-11.784-.294-9.084 0-12.317-5.122-15.706-11.126-3.39-6.004 7.18-19.852 11.69-21.753 1.45-.611 5.892 1.478 7.082 4.469.895 2.248 1.082 8.772 4.346 10.23 3.64 1.626 6.495 2.138 8.47 2.904 5.04.679 8.857 3.911 8.857 7.796 0 4.378-4.848 7.927-10.827 7.927-.712.001-1.424-.05-2.128-.152z" fill="url(#Frame_21__paint1_linear)"/>
  </g>
  <g opacity=".349" filter="url(#Frame_21__filter2_f)">
    <path d="M62.46 59.346c2.143 5.582 1.96 10.845-.41 11.755-2.37.91-6.027-2.879-8.17-8.462-2.143-5.582-1.96-10.845.41-11.754 2.369-.91 6.027 2.878 8.17 8.46z" fill="#fff"/>
  </g>
  <path opacity=".522" d="M80.607 60.993a12.512 12.512 0 00-10.295-6.255 12.524 12.524 0 00-13.069 11.954" stroke="#fff" stroke-linecap="round" stroke-linejoin="round"/>
  <path d="M109.966 69.27a14.704 14.704 0 00-14.667-14.706 14.706 14.706 0 00-29.411 0h-.039a14.705 14.705 0 10.383 29.407v.004h29.411v-.004a14.704 14.704 0 0014.323-14.702z" fill="#F7F9FF"/>
  <g filter="url(#Frame_21__filter3_f)">
    <path d="M75.221 64.231c4.156 4.3 4.141 11.056-.033 15.09-4.174 4.035-10.927 3.821-15.083-.478-4.156-4.3-4.141-11.056.033-15.09 4.174-4.036 10.927-3.821 15.083.478z" fill="url(#Frame_21__paint2_linear)"/>
  </g>
  <g filter="url(#Frame_21__filter4_f)">
    <path d="M95.977 81.712c-3.765.117-10.097-.294-11.784-.294-9.084 0-12.317-5.122-15.706-11.126-3.39-6.004 7.18-19.852 11.69-21.753 1.45-.611 5.892 1.478 7.082 4.469.895 2.248 1.082 8.772 4.346 10.23 3.64 1.626 6.495 2.138 8.471 2.904 5.038.679 8.856 3.911 8.856 7.796 0 4.378-4.848 7.927-10.827 7.927-.712 0-1.424-.05-2.128-.153z" fill="url(#Frame_21__paint3_linear)"/>
  </g>
  <g opacity=".349" filter="url(#Frame_21__filter5_f)">
    <path d="M78.897 64.108c2.143 5.582 1.96 10.845-.41 11.755-2.37.91-6.027-2.88-8.17-8.462s-1.96-10.845.41-11.754c2.369-.91 6.027 2.878 8.17 8.46z" fill="#fff"/>
  </g>
  <path d="M94.043 89.576a2.005 2.005 0 01-1.417-3.425l5.49-5.481a2.006 2.006 0 112.834 2.839l-5.49 5.48a2.002 2.002 0 01-1.417.587z" fill="url(#Frame_21__paint4_linear)"/>
  <path d="M63.892 88.315a2.006 2.006 0 01-1.417-3.425l5.49-5.481a2.006 2.006 0 012.834 2.839l-5.49 5.48a1.999 1.999 0 01-1.417.587z" fill="url(#Frame_21__paint5_linear)"/>
  <path d="M88.188 83.382a2.005 2.005 0 01-1.441-3.4l4.471-4.624a2.006 2.006 0 012.883 2.789l-4.47 4.623a2.001 2.001 0 01-1.443.612z" fill="url(#Frame_21__paint6_linear)"/>
  <path d="M79.718 90.383a2.005 2.005 0 01-1.408-3.434l2.829-2.786a2.006 2.006 0 012.814 2.858l-2.828 2.786a2 2 0 01-1.407.576z" fill="url(#Frame_21__paint7_linear)"/>
  <path d="M76.033 84.358a2.005 2.005 0 01-1.441-3.4l4.471-4.623a2.004 2.004 0 112.883 2.788l-4.47 4.624a1.999 1.999 0 01-1.443.611z" fill="url(#Frame_21__paint8_linear)"/>
  <g filter="url(#Frame_21__filter6_f)">
    <path d="M93.87 88.902c-.314 0 .04.067-.2-.181-.478-.495.468-.062 1.887-1.632 1.418-1.57 3.787-4.65 3.787-4.65a1.2 1.2 0 011.735.001c.479.495-1.835 2.331-2.314 2.825l-4.242 3.637c-.24.246-.34 0-.653 0z" fill="#529BED"/>
  </g>
  <g filter="url(#Frame_21__filter7_f)">
    <path d="M63.647 87.743c-.314 0 .04.067-.2-.18-.478-.495.468-.062 1.886-1.633 1.419-1.57 3.788-4.65 3.788-4.65a1.201 1.201 0 011.735.001c.478.495-1.835 2.331-2.314 2.825L64.3 87.744c-.24.246-.34 0-.653 0z" fill="#529BED"/>
  </g>
  <g filter="url(#Frame_21__filter8_f)">
    <path d="M76.103 83.591c-.314 0 .04.067-.2-.18-.478-.495-.594.614.824-.957 1.419-1.57 3.787-4.65 3.787-4.65a1.199 1.199 0 011.736.001c.478.495-1.835 2.331-2.314 2.825l-3.18 2.962c-.24.246-.34 0-.653 0z" fill="#529BED"/>
  </g>
  <g filter="url(#Frame_21__filter9_f)">
    <path d="M88.27 82.53c-.315 0 .04.066-.2-.181-.478-.495-.594.614.824-.956 1.418-1.57 3.787-4.65 3.787-4.65a1.2 1.2 0 011.735 0c.479.495-1.834 2.332-2.314 2.825l-3.18 2.962c-.239.246-.339 0-.652 0z" fill="#529BED"/>
  </g>
  <g filter="url(#Frame_21__filter10_f)">
    <path d="M79.634 89.644c-.314 0 .04.067-.2-.18-.478-.495-.594.614.825-.957a20.884 20.884 0 002.38-3.268 1.2 1.2 0 011.735.002c.479.494-1.835 2.33-2.314 2.824l-1.773 1.58c-.239.245-.339-.001-.653-.001z" fill="#529BED"/>
  </g>
  <circle cx="55.803" cy="81.533" r=".966" fill="#60A4F5"/>
  <circle cx="70.422" cy="95.312" r=".966" fill="#60A4F5"/>
  <circle cx="92.037" cy="93.38" r=".966" fill="#60A4F5"/>
  <circle cx="87.149" cy="89.977" r=".966" fill="#60A4F5" fill-opacity=".3"/>
  <defs>
    <filter id="Frame_21__filter0_f" x="32.561" y="48.099" width="37.331" height="37.352" filterUnits="userSpaceOnUse" color-interpolation-filters="sRGB">
      <feFlood flood-opacity="0" result="BackgroundImageFix"/>
      <feBlend in="SourceGraphic" in2="BackgroundImageFix" result="shape"/>
      <feGaussianBlur stdDeviation="4" result="effect1_foregroundBlur"/>
    </filter>
    <filter id="Frame_21__filter1_f" x="43.391" y="35.67" width="57.104" height="49.433" filterUnits="userSpaceOnUse" color-interpolation-filters="sRGB">
      <feFlood flood-opacity="0" result="BackgroundImageFix"/>
      <feBlend in="SourceGraphic" in2="BackgroundImageFix" result="shape"/>
      <feGaussianBlur stdDeviation="4" result="effect1_foregroundBlur"/>
    </filter>
    <filter id="Frame_21__filter2_f" x="44.385" y="42.75" width="27.569" height="36.486" filterUnits="userSpaceOnUse" color-interpolation-filters="sRGB">
      <feFlood flood-opacity="0" result="BackgroundImageFix"/>
      <feBlend in="SourceGraphic" in2="BackgroundImageFix" result="shape"/>
      <feGaussianBlur stdDeviation="4" result="effect1_foregroundBlur"/>
    </filter>
    <filter id="Frame_21__filter3_f" x="48.998" y="52.861" width="37.331" height="37.352" filterUnits="userSpaceOnUse" color-interpolation-filters="sRGB">
      <feFlood flood-opacity="0" result="BackgroundImageFix"/>
      <feBlend in="SourceGraphic" in2="BackgroundImageFix" result="shape"/>
      <feGaussianBlur stdDeviation="4" result="effect1_foregroundBlur"/>
    </filter>
    <filter id="Frame_21__filter4_f" x="59.828" y="40.432" width="57.104" height="49.433" filterUnits="userSpaceOnUse" color-interpolation-filters="sRGB">
      <feFlood flood-opacity="0" result="BackgroundImageFix"/>
      <feBlend in="SourceGraphic" in2="BackgroundImageFix" result="shape"/>
      <feGaussianBlur stdDeviation="4" result="effect1_foregroundBlur"/>
    </filter>
    <filter id="Frame_21__filter5_f" x="60.822" y="47.512" width="27.569" height="36.486" filterUnits="userSpaceOnUse" color-interpolation-filters="sRGB">
      <feFlood flood-opacity="0" result="BackgroundImageFix"/>
      <feBlend in="SourceGraphic" in2="BackgroundImageFix" result="shape"/>
      <feGaussianBlur stdDeviation="4" result="effect1_foregroundBlur"/>
    </filter>
    <filter id="Frame_21__filter6_f" x="90.545" y="79.069" width="13.598" height="12.943" filterUnits="userSpaceOnUse" color-interpolation-filters="sRGB">
      <feFlood flood-opacity="0" result="BackgroundImageFix"/>
      <feBlend in="SourceGraphic" in2="BackgroundImageFix" result="shape"/>
      <feGaussianBlur stdDeviation="1.5" result="effect1_foregroundBlur"/>
    </filter>
    <filter id="Frame_21__filter7_f" x="60.322" y="77.91" width="13.598" height="12.943" filterUnits="userSpaceOnUse" color-interpolation-filters="sRGB">
      <feFlood flood-opacity="0" result="BackgroundImageFix"/>
      <feBlend in="SourceGraphic" in2="BackgroundImageFix" result="shape"/>
      <feGaussianBlur stdDeviation="1.5" result="effect1_foregroundBlur"/>
    </filter>
    <filter id="Frame_21__filter8_f" x="72.578" y="74.434" width="12.736" height="12.267" filterUnits="userSpaceOnUse" color-interpolation-filters="sRGB">
      <feFlood flood-opacity="0" result="BackgroundImageFix"/>
      <feBlend in="SourceGraphic" in2="BackgroundImageFix" result="shape"/>
      <feGaussianBlur stdDeviation="1.5" result="effect1_foregroundBlur"/>
    </filter>
    <filter id="Frame_21__filter9_f" x="84.745" y="73.372" width="12.736" height="12.267" filterUnits="userSpaceOnUse" color-interpolation-filters="sRGB">
      <feFlood flood-opacity="0" result="BackgroundImageFix"/>
      <feBlend in="SourceGraphic" in2="BackgroundImageFix" result="shape"/>
      <feGaussianBlur stdDeviation="1.5" result="effect1_foregroundBlur"/>
    </filter>
    <filter id="Frame_21__filter10_f" x="76.11" y="81.869" width="11.329" height="10.884" filterUnits="userSpaceOnUse" color-interpolation-filters="sRGB">
      <feFlood flood-opacity="0" result="BackgroundImageFix"/>
      <feBlend in="SourceGraphic" in2="BackgroundImageFix" result="shape"/>
      <feGaussianBlur stdDeviation="1.5" result="effect1_foregroundBlur"/>
    </filter>
    <linearGradient id="Frame_21__paint0_linear" x1="64.514" y1="53.539" x2="39.817" y2="77.781" gradientUnits="userSpaceOnUse">
      <stop stop-color="#E0E8FF" stop-opacity="0"/>
      <stop offset=".845" stop-color="#C7D4FF" stop-opacity=".847"/>
      <stop offset="1" stop-color="#C9D6FD"/>
    </linearGradient>
    <linearGradient id="Frame_21__paint1_linear" x1="71.409" y1="30.565" x2="71.762" y2="85.597" gradientUnits="userSpaceOnUse">
      <stop stop-color="#E0E8FF" stop-opacity="0"/>
      <stop offset=".845" stop-color="#C7D4FF" stop-opacity=".847"/>
      <stop offset="1" stop-color="#C9D6FD"/>
    </linearGradient>
    <linearGradient id="Frame_21__paint2_linear" x1="80.951" y1="58.301" x2="56.254" y2="82.543" gradientUnits="userSpaceOnUse">
      <stop stop-color="#E0E8FF" stop-opacity="0"/>
      <stop offset=".845" stop-color="#C7D4FF" stop-opacity=".847"/>
      <stop offset="1" stop-color="#C9D6FD"/>
    </linearGradient>
    <linearGradient id="Frame_21__paint3_linear" x1="87.846" y1="35.327" x2="88.199" y2="90.359" gradientUnits="userSpaceOnUse">
      <stop stop-color="#E0E8FF" stop-opacity="0"/>
      <stop offset=".845" stop-color="#C7D4FF" stop-opacity=".847"/>
      <stop offset="1" stop-color="#C9D6FD"/>
    </linearGradient>
    <linearGradient id="Frame_21__paint4_linear" x1="98.242" y1="85.551" x2="94.994" y2="83.783" gradientUnits="userSpaceOnUse">
      <stop stop-color="#57AAFF"/>
      <stop offset="1" stop-color="#B7DAFF"/>
    </linearGradient>
    <linearGradient id="Frame_21__paint5_linear" x1="68.091" y1="84.29" x2="64.843" y2="82.522" gradientUnits="userSpaceOnUse">
      <stop stop-color="#57AAFF"/>
      <stop offset="1" stop-color="#B7DAFF"/>
    </linearGradient>
    <linearGradient id="Frame_21__paint6_linear" x1="91.72" y1="79.722" x2="88.797" y2="78.161" gradientUnits="userSpaceOnUse">
      <stop stop-color="#57AAFF"/>
      <stop offset="1" stop-color="#B7DAFF"/>
    </linearGradient>
    <linearGradient id="Frame_21__paint7_linear" x1="82.178" y1="87.501" x2="79.846" y2="86.225" gradientUnits="userSpaceOnUse">
      <stop stop-color="#57AAFF"/>
      <stop offset="1" stop-color="#B7DAFF"/>
    </linearGradient>
    <linearGradient id="Frame_21__paint8_linear" x1="79.573" y1="80.693" x2="76.645" y2="79.129" gradientUnits="userSpaceOnUse">
      <stop stop-color="#57AAFF"/>
      <stop offset="1" stop-color="#B7DAFF"/>
    </linearGradient>
  </defs>
</svg>
