<svg width="117" height="85" fill="none" xmlns="http://www.w3.org/2000/svg">
  <path d="M101.625 54.997c-.984 0-1.966.098-2.93.293a12.085 12.085 0 00-16.926-8.592C78.729 38.324 69.476 34 61.102 37.04c-8.374 3.04-12.698 12.294-9.658 20.667-7.335.232-13.13 6.304-13.02 13.642.11 7.338 6.085 13.233 13.424 13.245h49.777c8.172 0 14.798-6.626 14.798-14.799 0-8.173-6.626-14.798-14.798-14.798z" fill="#A3D4F7"/>
  <circle cx="4.022" cy="1.305" r=".633" fill="#0C193B"/>
  <circle cx="9.188" cy="1.305" r=".633" fill="#0C193B"/>
  <circle cx="14.354" cy="1.305" r=".633" fill="#0C193B"/>
  <circle cx="19.52" cy="1.305" r=".633" fill="#0C193B"/>
  <circle cx="24.687" cy="1.305" r=".633" fill="#0C193B"/>
  <circle cx="29.853" cy="1.305" r=".633" fill="#0C193B"/>
  <circle cx="35.019" cy="1.305" r=".633" fill="#0C193B"/>
  <circle cx="40.185" cy="1.305" r=".633" fill="#0C193B"/>
  <circle cx="45.351" cy="1.305" r=".633" fill="#0C193B"/>
  <circle cx="50.518" cy="1.305" r=".633" fill="#0C193B"/>
  <circle cx="55.684" cy="1.305" r=".633" fill="#0C193B"/>
  <circle cx="60.85" cy="1.305" r=".633" fill="#0C193B"/>
  <circle cx="66.016" cy="1.305" r=".633" fill="#0C193B"/>
  <circle cx=".945" cy="47.297" r=".633" fill="#0C193B"/>
  <circle cx="6.112" cy="47.297" r=".633" fill="#0C193B"/>
  <circle cx="11.278" cy="47.297" r=".633" fill="#0C193B"/>
  <circle cx="16.444" cy="47.297" r=".633" fill="#0C193B"/>
  <circle cx="21.61" cy="47.297" r=".633" fill="#0C193B"/>
  <circle cx="26.776" cy="47.297" r=".633" fill="#0C193B"/>
  <circle cx="31.943" cy="47.297" r=".633" fill="#0C193B"/>
  <circle cx="37.109" cy="47.297" r=".633" fill="#0C193B"/>
  <circle cx="42.275" cy="47.297" r=".633" fill="#0C193B"/>
  <circle cx="47.441" cy="47.297" r=".633" fill="#0C193B"/>
  <circle cx="52.607" cy="47.297" r=".633" fill="#0C193B"/>
  <circle cx="57.774" cy="47.297" r=".633" fill="#0C193B"/>
  <circle cx="62.94" cy="47.297" r=".633" fill="#0C193B"/>
  <circle cx=".945" cy="6.067" r=".633" fill="#0C193B"/>
  <circle cx="6.112" cy="6.067" r=".633" fill="#0C193B"/>
  <circle cx="11.278" cy="6.067" r=".633" fill="#0C193B"/>
  <circle cx="16.444" cy="6.067" r=".633" fill="#0C193B"/>
  <circle cx="21.61" cy="6.067" r=".633" fill="#0C193B"/>
  <circle cx="26.776" cy="6.067" r=".633" fill="#0C193B"/>
  <circle cx="31.943" cy="6.067" r=".633" fill="#0C193B"/>
  <circle cx="37.109" cy="6.067" r=".633" fill="#0C193B"/>
  <circle cx="42.275" cy="6.067" r=".633" fill="#0C193B"/>
  <circle cx="47.441" cy="6.067" r=".633" fill="#0C193B"/>
  <circle cx="52.607" cy="6.067" r=".633" fill="#0C193B"/>
  <circle cx="57.774" cy="6.067" r=".633" fill="#0C193B"/>
  <circle cx="62.94" cy="6.067" r=".633" fill="#0C193B"/>
  <circle cx=".945" cy="26.801" r=".633" fill="#0C193B"/>
  <circle cx="6.112" cy="26.801" r=".633" fill="#0C193B"/>
  <circle cx="11.278" cy="26.801" r=".633" fill="#0C193B"/>
  <circle cx="16.444" cy="26.801" r=".633" fill="#0C193B"/>
  <circle cx="21.61" cy="26.801" r=".633" fill="#0C193B"/>
  <circle cx="26.776" cy="26.801" r=".633" fill="#0C193B"/>
  <circle cx="31.943" cy="26.801" r=".633" fill="#0C193B"/>
  <circle cx="37.109" cy="26.801" r=".633" fill="#0C193B"/>
  <circle cx="42.275" cy="26.801" r=".633" fill="#0C193B"/>
  <circle cx="47.441" cy="26.801" r=".633" fill="#0C193B"/>
  <circle cx="52.607" cy="26.801" r=".633" fill="#0C193B"/>
  <circle cx="57.774" cy="26.801" r=".633" fill="#0C193B"/>
  <circle cx="62.94" cy="26.801" r=".633" fill="#0C193B"/>
  <circle cx="3.945" cy="11.067" r=".633" fill="#0C193B"/>
  <circle cx="9.112" cy="11.067" r=".633" fill="#0C193B"/>
  <circle cx="14.278" cy="11.067" r=".633" fill="#0C193B"/>
  <circle cx="19.444" cy="11.067" r=".633" fill="#0C193B"/>
  <circle cx="24.61" cy="11.067" r=".633" fill="#0C193B"/>
  <circle cx="29.776" cy="11.067" r=".633" fill="#0C193B"/>
  <circle cx="34.943" cy="11.067" r=".633" fill="#0C193B"/>
  <circle cx="40.109" cy="11.067" r=".633" fill="#0C193B"/>
  <circle cx="45.275" cy="11.067" r=".633" fill="#0C193B"/>
  <circle cx="50.441" cy="11.067" r=".633" fill="#0C193B"/>
  <circle cx="55.607" cy="11.067" r=".633" fill="#0C193B"/>
  <circle cx="60.774" cy="11.067" r=".633" fill="#0C193B"/>
  <circle cx="65.94" cy="11.067" r=".633" fill="#0C193B"/>
  <circle cx="3.945" cy="31.801" r=".633" fill="#0C193B"/>
  <circle cx="9.112" cy="31.801" r=".633" fill="#0C193B"/>
  <circle cx="14.278" cy="31.801" r=".633" fill="#0C193B"/>
  <circle cx="19.444" cy="31.801" r=".633" fill="#0C193B"/>
  <circle cx="24.61" cy="31.801" r=".633" fill="#0C193B"/>
  <circle cx="29.776" cy="31.801" r=".633" fill="#0C193B"/>
  <circle cx="34.943" cy="31.801" r=".633" fill="#0C193B"/>
  <circle cx="40.109" cy="31.801" r=".633" fill="#0C193B"/>
  <circle cx="45.275" cy="31.801" r=".633" fill="#0C193B"/>
  <circle cx="50.441" cy="31.801" r=".633" fill="#0C193B"/>
  <circle cx="55.607" cy="31.801" r=".633" fill="#0C193B"/>
  <circle cx="60.774" cy="31.801" r=".633" fill="#0C193B"/>
  <circle cx="65.94" cy="31.801" r=".633" fill="#0C193B"/>
  <circle cx=".945" cy="16.067" r=".633" fill="#0C193B"/>
  <circle cx="6.112" cy="16.067" r=".633" fill="#0C193B"/>
  <circle cx="11.278" cy="16.067" r=".633" fill="#0C193B"/>
  <circle cx="16.444" cy="16.067" r=".633" fill="#0C193B"/>
  <circle cx="21.61" cy="16.067" r=".633" fill="#0C193B"/>
  <circle cx="26.776" cy="16.067" r=".633" fill="#0C193B"/>
  <circle cx="31.943" cy="16.067" r=".633" fill="#0C193B"/>
  <circle cx="37.109" cy="16.067" r=".633" fill="#0C193B"/>
  <circle cx="42.275" cy="16.067" r=".633" fill="#0C193B"/>
  <circle cx="47.441" cy="16.067" r=".633" fill="#0C193B"/>
  <circle cx="52.607" cy="16.067" r=".633" fill="#0C193B"/>
  <circle cx="57.774" cy="16.067" r=".633" fill="#0C193B"/>
  <circle cx="62.94" cy="16.067" r=".633" fill="#0C193B"/>
  <circle cx=".945" cy="36.801" r=".633" fill="#0C193B"/>
  <circle cx="6.112" cy="36.801" r=".633" fill="#0C193B"/>
  <circle cx="11.278" cy="36.801" r=".633" fill="#0C193B"/>
  <circle cx="16.444" cy="36.801" r=".633" fill="#0C193B"/>
  <circle cx="21.61" cy="36.801" r=".633" fill="#0C193B"/>
  <circle cx="26.776" cy="36.801" r=".633" fill="#0C193B"/>
  <circle cx="31.943" cy="36.801" r=".633" fill="#0C193B"/>
  <circle cx="37.109" cy="36.801" r=".633" fill="#0C193B"/>
  <circle cx="42.275" cy="36.801" r=".633" fill="#0C193B"/>
  <circle cx="47.441" cy="36.801" r=".633" fill="#0C193B"/>
  <circle cx="52.607" cy="36.801" r=".633" fill="#0C193B"/>
  <circle cx="57.774" cy="36.801" r=".633" fill="#0C193B"/>
  <circle cx="62.94" cy="36.801" r=".633" fill="#0C193B"/>
  <circle cx="3.945" cy="22.067" r=".633" fill="#0C193B"/>
  <circle cx="9.112" cy="22.067" r=".633" fill="#0C193B"/>
  <circle cx="14.278" cy="22.067" r=".633" fill="#0C193B"/>
  <circle cx="19.444" cy="22.067" r=".633" fill="#0C193B"/>
  <circle cx="24.61" cy="22.067" r=".633" fill="#0C193B"/>
  <circle cx="29.776" cy="22.067" r=".633" fill="#0C193B"/>
  <circle cx="34.943" cy="22.067" r=".633" fill="#0C193B"/>
  <circle cx="40.109" cy="22.067" r=".633" fill="#0C193B"/>
  <circle cx="45.275" cy="22.067" r=".633" fill="#0C193B"/>
  <circle cx="50.441" cy="22.067" r=".633" fill="#0C193B"/>
  <circle cx="55.607" cy="22.067" r=".633" fill="#0C193B"/>
  <circle cx="60.774" cy="22.067" r=".633" fill="#0C193B"/>
  <circle cx="65.94" cy="22.067" r=".633" fill="#0C193B"/>
  <circle cx="3.945" cy="42.801" r=".633" fill="#0C193B"/>
  <circle cx="9.112" cy="42.801" r=".633" fill="#0C193B"/>
  <circle cx="14.278" cy="42.801" r=".633" fill="#0C193B"/>
  <circle cx="19.444" cy="42.801" r=".633" fill="#0C193B"/>
  <circle cx="24.61" cy="42.801" r=".633" fill="#0C193B"/>
  <circle cx="29.776" cy="42.801" r=".633" fill="#0C193B"/>
  <circle cx="34.943" cy="42.801" r=".633" fill="#0C193B"/>
  <circle cx="40.109" cy="42.801" r=".633" fill="#0C193B"/>
  <circle cx="45.275" cy="42.801" r=".633" fill="#0C193B"/>
  <circle cx="50.441" cy="42.801" r=".633" fill="#0C193B"/>
  <circle cx="55.607" cy="42.801" r=".633" fill="#0C193B"/>
  <circle cx="60.774" cy="42.801" r=".633" fill="#0C193B"/>
  <circle cx="65.94" cy="42.801" r=".633" fill="#0C193B"/>
</svg>
