<svg version="1" xmlns="http://www.w3.org/2000/svg" width="1152" height="1152" viewBox="0 0 864.000000 864.000000"><path d="M441 11.8c-11.4 5.1-13.5 21.1-3.8 28.6 7.4 5.6 19.1 4.1 24.6-3.2 2.3-3 2.7-4.5 2.7-9.8 0-7-1.7-10.2-7.5-14.2-2.5-1.7-4.7-2.2-8.9-2.1-3.1 0-6.3.3-7.1.7zM425 104.1c-38 2.4-79.2 13.9-115 31.8-60.5 30.4-108.4 78.5-138.1 138.6-16.1 32.8-24.4 59.9-29.6 96.5-2.1 15.5-2.5 60.4-.5 75 9.5 71.4 39.3 132.4 88.9 181.6 49.9 49.7 113.2 79.9 184.3 88 20.1 2.3 58.6 1.5 78.5-1.5 130.1-20 233.2-118.4 257.5-245.6 6.6-34.6 6.8-78.8.4-113.5-19.9-109.6-98.9-200.4-205.1-235.9-38.9-13-78.1-17.9-121.3-15zM61.2 393.7c-1.3.3-4.3 2.3-6.7 4.6-7 6.8-7.4 15.5-.9 22.7 6.9 7.6 16.8 7.9 24 .6 6.8-6.8 7.2-15.5.9-22.5-4.5-5-10.2-6.7-17.3-5.4zM824.2 395.1c-6.5 3.2-8.7 7.1-8.7 15 0 5.6.4 7.1 2.7 10.1 3.4 4.4 10.2 7.3 15.3 6.5 16.1-2.6 19.8-23.9 5.6-31.4-5.5-2.9-9.4-2.9-14.9-.2zM442.6 777c-6.5 2-10.6 8.3-10.6 16.3 0 9.6 6.7 16.1 16.5 16.1 10 0 17.1-7.8 16.3-17.8-.9-11.2-11.1-17.9-22.2-14.6z"/></svg>